<svg width="250" height="55" viewBox="0 0 250 55" fill="none" xmlns="http://www.w3.org/2000/svg">
<circle cx="27" cy="30.1" r="20" fill="#30383A" stroke="#30383A" stroke-width="2.57143"/>
<circle cx="27" cy="30" r="5" fill="#3B8686"/>
<path d="M39.4679 37.5028C37.8416 40.2417 35.3587 42.369 32.4028 43.5558C29.4468 44.7427 26.1822 44.9232 23.1134 44.0694C20.0446 43.2156 17.3424 41.375 15.4241 38.832C13.5059 36.289 12.4784 33.1852 12.5003 29.9999C12.5223 26.8146 13.5926 23.7252 15.5458 21.2089C17.499 18.6927 20.2264 16.8896 23.3067 16.0782C26.387 15.2669 29.6487 15.4924 32.588 16.72C35.5273 17.9476 37.9806 20.1089 39.5689 22.87L33.7495 26.2175C32.8966 24.7348 31.5792 23.5741 30.0008 22.9149C28.4224 22.2557 26.6708 22.1346 25.0167 22.5703C23.3626 23.006 21.8979 23.9742 20.8491 25.3255C19.8002 26.6767 19.2255 28.3357 19.2137 30.0462C19.2019 31.7567 19.7536 33.4235 20.7837 34.7891C21.8139 36.1547 23.265 37.1431 24.9129 37.6016C26.5609 38.06 28.3139 37.9631 29.9013 37.3258C31.4886 36.6884 32.822 35.5461 33.6953 34.0753L39.4679 37.5028Z" fill="white"/>
<path d="M80.2204 16.2V43.1H72.7704V40C70.8371 42.3333 68.0371 43.5 64.3704 43.5C61.8371 43.5 59.5371 42.9333 57.4704 41.8C55.4371 40.6667 53.8371 39.05 52.6704 36.95C51.5037 34.85 50.9204 32.4167 50.9204 29.65C50.9204 26.8833 51.5037 24.45 52.6704 22.35C53.8371 20.25 55.4371 18.6333 57.4704 17.5C59.5371 16.3667 61.8371 15.8 64.3704 15.8C67.8037 15.8 70.4871 16.8833 72.4204 19.05V16.2H80.2204ZM65.7204 37.1C67.6871 37.1 69.3204 36.4333 70.6204 35.1C71.9204 33.7333 72.5704 31.9167 72.5704 29.65C72.5704 27.3833 71.9204 25.5833 70.6204 24.25C69.3204 22.8833 67.6871 22.2 65.7204 22.2C63.7204 22.2 62.0704 22.8833 60.7704 24.25C59.4704 25.5833 58.8204 27.3833 58.8204 29.65C58.8204 31.9167 59.4704 33.7333 60.7704 35.1C62.0704 36.4333 63.7204 37.1 65.7204 37.1Z" fill="#30383A"/>
<path d="M114.842 6V43.1H107.392V40C105.459 42.3333 102.659 43.5 98.9919 43.5C96.4586 43.5 94.1586 42.9333 92.0919 41.8C90.0586 40.6667 88.4586 39.05 87.2919 36.95C86.1252 34.85 85.5419 32.4167 85.5419 29.65C85.5419 26.8833 86.1252 24.45 87.2919 22.35C88.4586 20.25 90.0586 18.6333 92.0919 17.5C94.1586 16.3667 96.4586 15.8 98.9919 15.8C102.425 15.8 105.109 16.8833 107.042 19.05V6H114.842ZM100.342 37.1C102.309 37.1 103.942 36.4333 105.242 35.1C106.542 33.7333 107.192 31.9167 107.192 29.65C107.192 27.3833 106.542 25.5833 105.242 24.25C103.942 22.8833 102.309 22.2 100.342 22.2C98.3419 22.2 96.6919 22.8833 95.3919 24.25C94.0919 25.5833 93.4419 27.3833 93.4419 29.65C93.4419 31.9167 94.0919 33.7333 95.3919 35.1C96.6919 36.4333 98.3419 37.1 100.342 37.1Z" fill="#30383A"/>
<path d="M135.611 37.25C137.011 37.25 138.244 37.05 139.311 36.65C140.411 36.2167 141.428 35.55 142.361 34.65L146.511 39.15C143.978 42.05 140.278 43.5 135.411 43.5C132.378 43.5 129.694 42.9167 127.361 41.75C125.028 40.55 123.228 38.9 121.961 36.8C120.694 34.7 120.061 32.3167 120.061 29.65C120.061 27.0167 120.678 24.65 121.911 22.55C123.178 20.4167 124.894 18.7667 127.061 17.6C129.261 16.4 131.728 15.8 134.461 15.8C137.028 15.8 139.361 16.35 141.461 17.45C143.561 18.5167 145.228 20.0833 146.461 22.15C147.728 24.1833 148.361 26.6 148.361 29.4L128.461 33.25C129.028 34.5833 129.911 35.5833 131.111 36.25C132.344 36.9167 133.844 37.25 135.611 37.25ZM134.461 21.7C132.494 21.7 130.894 22.3333 129.661 23.6C128.428 24.8667 127.778 26.6167 127.711 28.85L140.811 26.3C140.444 24.9 139.694 23.7833 138.561 22.95C137.428 22.1167 136.061 21.7 134.461 21.7Z" fill="#30383A"/>
<path d="M169.954 15.8C173.287 15.8 175.971 16.8 178.004 18.8C180.071 20.8 181.104 23.7667 181.104 27.7V43.1H173.304V28.9C173.304 26.7667 172.837 25.1833 171.904 24.15C170.971 23.0833 169.621 22.55 167.854 22.55C165.887 22.55 164.321 23.1667 163.154 24.4C161.987 25.6 161.404 27.4 161.404 29.8V43.1H153.604V16.2H161.054V19.35C162.087 18.2167 163.371 17.35 164.904 16.75C166.437 16.1167 168.121 15.8 169.954 15.8Z" fill="#30383A"/>
<path d="M242.769 16.2V43.1H235.319V40C233.386 42.3333 230.586 43.5 226.919 43.5C224.386 43.5 222.086 42.9333 220.019 41.8C217.986 40.6667 216.386 39.05 215.219 36.95C214.053 34.85 213.469 32.4167 213.469 29.65C213.469 26.8833 214.053 24.45 215.219 22.35C216.386 20.25 217.986 18.6333 220.019 17.5C222.086 16.3667 224.386 15.8 226.919 15.8C230.353 15.8 233.036 16.8833 234.969 19.05V16.2H242.769ZM228.269 37.1C230.236 37.1 231.869 36.4333 233.169 35.1C234.469 33.7333 235.119 31.9167 235.119 29.65C235.119 27.3833 234.469 25.5833 233.169 24.25C231.869 22.8833 230.236 22.2 228.269 22.2C226.269 22.2 224.619 22.8833 223.319 24.25C222.019 25.5833 221.369 27.3833 221.369 29.65C221.369 31.9167 222.019 33.7333 223.319 35.1C224.619 36.4333 226.269 37.1 228.269 37.1Z" fill="#30383A"/>
<path d="M210.574 37.1V43.1H186.574V38.4L191.924 32.1L196.324 26.9L200.274 22.2H186.924V16.2H210.124V20.9L205.024 26.95L200.624 32.15L196.424 37.1H210.574Z" fill="#30383A"/>
</svg>
