<svg width="216" height="66" viewBox="0 0 216 66" fill="none" xmlns="http://www.w3.org/2000/svg">
<g clip-path="url(#clip0)">
<path fill-rule="evenodd" clip-rule="evenodd" d="M53.2736 16.3701C48.6778 17.0277 44.4884 20.4856 41.2952 26.2568C40.6492 27.4244 37.728 33.4149 37.728 33.5721C37.728 33.6388 37.5404 34.1438 37.311 34.6945C35.8106 38.2969 35.5525 39.2488 36.1069 39.135C36.2691 39.1017 36.9108 38.0256 37.6274 36.5856C39.2161 33.3928 39.3794 33.0922 40.3178 31.6325C40.7474 30.9641 41.2019 30.2201 41.3277 29.9791C41.4536 29.7381 42.316 28.7458 43.2444 27.7738C44.679 26.2717 45.1503 25.8994 46.3867 25.2915C48.2755 24.363 49.9797 24.081 51.961 24.3695C55.1266 24.8304 57.6826 26.803 62.6003 32.5808C63.8918 34.0982 64.9929 35.3798 65.047 35.4287C65.1011 35.4776 65.8005 36.3187 66.6013 37.2976C67.402 38.2766 68.9439 40.1588 70.0276 41.4804C72.5149 44.5134 76.2157 48.2728 78.0587 49.6388C80.1188 51.1657 81.0867 51.6259 82.2372 51.6259C83.1133 51.6259 83.2485 51.5695 83.8473 50.953C85.0146 49.7512 86.3224 46.901 86.9091 44.2806C87.2751 42.6459 87.0339 41.1248 86.2698 40.2485C85.7631 39.6674 85.728 39.6549 85.5 39.976C85.3686 40.1611 85.1866 40.5978 85.0953 40.9464C85.004 41.2951 84.8254 41.7269 84.6984 41.906C84.4771 42.2173 84.4265 42.2102 83.5279 41.7422C81.0635 40.4589 77.8225 37.442 73.7819 32.6698C70.048 28.2601 68.9188 27.0193 65.2406 23.2856C61.0635 19.0453 59.6727 17.925 57.3507 16.9297C55.8958 16.3062 54.7857 16.1538 53.2736 16.3701ZM7.47856 16.8529C6.78984 17.4496 5.8724 18.9232 5.30312 20.3473C4.0937 23.3724 3.73654 25.382 4.18826 26.6181C4.45103 27.337 5.10069 28.308 5.31419 28.301C5.40927 28.2978 5.72044 27.7777 6.00568 27.1453C6.34521 26.3924 6.62561 25.9951 6.8175 25.9951C7.30085 25.9951 9.13054 27.1896 10.906 28.6645C13.1151 30.4996 15.1021 32.6381 19.2305 37.6251C21.7978 40.7264 28.6682 47.7972 30.3808 49.101C31.0464 49.6075 32.2911 50.388 33.1468 50.8351C35.0849 51.8479 36.5367 52.0323 38.6966 51.5403C41.8384 50.8245 44.6066 49.0018 46.8585 46.1662C48.9034 43.591 49.7197 42.2075 51.9859 37.4756C53.6152 34.0731 53.9333 33.3243 54.8575 30.7133C55.4376 29.0746 55.4707 28.7949 55.0744 28.8745C54.9059 28.9083 54.31 29.886 53.6289 31.2459C52.2741 33.951 51.5916 35.2354 51.3118 35.6067C51.2012 35.7535 51.0136 36.0739 50.8949 36.3187C49.9748 38.2144 46.8709 41.6082 45.1895 42.5569C42.4557 44.0992 38.8516 44.1797 36.2585 42.7559C34.4138 41.7431 31.7422 39.2998 29.0253 36.1407C28.478 35.5043 27.8925 34.8235 27.7239 34.6277C26.9697 33.7513 24.0245 30.2027 22.7749 28.665C14.8181 18.8735 9.70431 14.9246 7.47856 16.8529Z" fill="#20282A"/>
<path d="M133.354 17.7265L121.674 46.6465H116.814L105.134 17.7265H109.454C109.921 17.7265 110.301 17.8398 110.594 18.0665C110.887 18.2932 111.107 18.5865 111.254 18.9465L118.074 36.5865C118.301 37.1598 118.514 37.7932 118.714 38.4865C118.927 39.1665 119.127 39.8798 119.314 40.6265C119.474 39.8798 119.647 39.1665 119.834 38.4865C120.021 37.7932 120.227 37.1598 120.454 36.5865L127.234 18.9465C127.341 18.6398 127.547 18.3598 127.854 18.1065C128.174 17.8531 128.561 17.7265 129.014 17.7265H133.354ZM142.08 22.0065V30.0265H152.2V34.1665H142.08V42.3465H154.92V46.6465H136.68V17.7265H154.92V22.0065H142.08ZM168.76 31.4865C169.773 31.4865 170.653 31.3598 171.4 31.1065C172.16 30.8532 172.78 30.5065 173.26 30.0665C173.753 29.6132 174.12 29.0798 174.36 28.4665C174.6 27.8532 174.72 27.1798 174.72 26.4465C174.72 24.9798 174.233 23.8532 173.26 23.0665C172.3 22.2798 170.827 21.8865 168.84 21.8865H165.4V31.4865H168.76ZM182.6 46.6465H177.74C176.82 46.6465 176.153 46.2865 175.74 45.5665L169.66 36.3065C169.433 35.9598 169.18 35.7132 168.9 35.5665C168.633 35.4198 168.233 35.3465 167.7 35.3465H165.4V46.6465H160.02V17.7265H168.84C170.8 17.7265 172.48 17.9331 173.88 18.3465C175.293 18.7465 176.447 19.3131 177.34 20.0465C178.247 20.7798 178.913 21.6598 179.34 22.6865C179.767 23.6998 179.98 24.8198 179.98 26.0465C179.98 27.0198 179.833 27.9398 179.54 28.8065C179.26 29.6732 178.847 30.4598 178.3 31.1665C177.767 31.8732 177.1 32.4932 176.3 33.0265C175.513 33.5598 174.613 33.9798 173.6 34.2865C173.947 34.4865 174.267 34.7265 174.56 35.0065C174.853 35.2732 175.12 35.5932 175.36 35.9665L182.6 46.6465ZM201.335 35.7265L197.815 26.1065C197.642 25.6798 197.462 25.1732 197.275 24.5865C197.089 23.9998 196.902 23.3665 196.715 22.6865C196.542 23.3665 196.362 24.0065 196.175 24.6065C195.989 25.1931 195.809 25.7065 195.635 26.1465L192.135 35.7265H201.335ZM210.835 46.6465H206.675C206.209 46.6465 205.829 46.5332 205.535 46.3065C205.242 46.0665 205.022 45.7732 204.875 45.4265L202.715 39.5265H190.735L188.575 45.4265C188.469 45.7332 188.262 46.0132 187.955 46.2665C187.649 46.5198 187.269 46.6465 186.815 46.6465H182.615L193.995 17.7265H199.475L210.835 46.6465Z" fill="#20282A"/>
</g>
<defs>
<clipPath id="clip0">
<rect width="216" height="66" fill="white"/>
</clipPath>
</defs>
</svg>
