<svg width="40" height="40" viewBox="0 0 40 40" fill="none" xmlns="http://www.w3.org/2000/svg">
<path d="M15 28.3333H16C16 27.781 15.5523 27.3333 15 27.3333V28.3333ZM35 25H36C36 24.4477 35.5523 24 35 24V25ZM15 27.3333H8.33333V29.3333H15V27.3333ZM8.33333 27.3333C5.9401 27.3333 4 29.2734 4 31.6667H6C6 30.378 7.04467 29.3333 8.33333 29.3333V27.3333ZM4 31.6667C4 34.0599 5.9401 36 8.33333 36V34C7.04467 34 6 32.9553 6 31.6667H4ZM8.33333 36H11.6667V34H8.33333V36ZM11.6667 36C14.0599 36 16 34.0599 16 31.6667H14C14 32.9553 12.9553 34 11.6667 34V36ZM16 31.6667V28.3333H14V31.6667H16ZM35 24H28.3333V26H35V24ZM28.3333 24C25.9401 24 24 25.9401 24 28.3333H26C26 27.0447 27.0447 26 28.3333 26V24ZM24 28.3333C24 30.7266 25.9401 32.6667 28.3333 32.6667V30.6667C27.0447 30.6667 26 29.622 26 28.3333H24ZM28.3333 32.6667H31.6667V30.6667H28.3333V32.6667ZM31.6667 32.6667C34.0599 32.6667 36 30.7266 36 28.3333H34C34 29.622 32.9553 30.6667 31.6667 30.6667V32.6667ZM36 28.3333V25H34V28.3333H36Z" fill="white"/>
<path d="M15 28.3333V8.33333L35 5V25" stroke="white" stroke-width="2" stroke-linecap="round" stroke-linejoin="round"/>
</svg>
