<svg width="40" height="40" viewBox="0 0 40 40" fill="none" xmlns="http://www.w3.org/2000/svg">
<path d="M1.66663 6.6665V16.6665H11.6666" stroke="white" stroke-width="2" stroke-linecap="round" stroke-linejoin="round"/>
<path d="M38.3334 33.3335V23.3335H28.3334" stroke="white" stroke-width="2" stroke-linecap="round" stroke-linejoin="round"/>
<path d="M33.2074 15.3334C33.3916 15.854 33.963 16.1267 34.4837 15.9425C35.0043 15.7582 35.277 15.1868 35.0928 14.6662L33.2074 15.3334ZM9.40008 9.39976L10.0849 10.1285C10.0925 10.1214 10.1 10.1141 10.1074 10.1067L9.40008 9.39976ZM0.981971 15.9377C0.579492 16.3159 0.559803 16.9487 0.937995 17.3512C1.31619 17.7537 1.94905 17.7734 2.35152 17.3952L0.981971 15.9377ZM39.0182 24.0618C39.4207 23.6837 39.4404 23.0508 39.0622 22.6483C38.684 22.2458 38.0511 22.2261 37.6487 22.6043L39.0182 24.0618ZM30.6001 30.5998L29.9153 29.871C29.9077 29.8782 29.9002 29.8854 29.8928 29.8928L30.6001 30.5998ZM6.79281 24.6662C6.60857 24.1455 6.03715 23.8728 5.5165 24.057C4.99585 24.2413 4.72314 24.8127 4.90738 25.3334L6.79281 24.6662ZM35.0928 14.6662C33.2601 9.48716 28.8985 5.61055 23.5403 4.39818L23.0989 6.34887C27.7874 7.40969 31.6038 10.8017 33.2074 15.3334L35.0928 14.6662ZM23.5403 4.39818C18.182 3.1858 12.5765 4.80722 8.6928 8.69283L10.1074 10.1067C13.5056 6.70678 18.4104 5.28804 23.0989 6.34887L23.5403 4.39818ZM8.7153 8.67101L0.981971 15.9377L2.35152 17.3952L10.0849 10.1285L8.7153 8.67101ZM37.6487 22.6043L29.9153 29.871L31.2849 31.3285L39.0182 24.0618L37.6487 22.6043ZM29.8928 29.8928C26.4946 33.2927 21.5897 34.7115 16.9013 33.6507L16.4599 35.6013C21.8181 36.8137 27.4237 35.1923 31.3074 31.3067L29.8928 29.8928ZM16.9013 33.6507C12.2128 32.5898 8.39641 29.1978 6.79281 24.6662L4.90738 25.3334C6.74006 30.5124 11.1016 34.389 16.4599 35.6013L16.9013 33.6507Z" fill="white"/>
</svg>
