<svg width="115" height="115" viewBox="0 0 115 115" fill="none" xmlns="http://www.w3.org/2000/svg">
<path d="M105.417 78.584H51.75C47.5158 78.584 44.0833 82.0165 44.0833 86.2507V105.417C44.0833 109.652 47.5158 113.084 51.75 113.084H105.417C109.651 113.084 113.083 109.652 113.083 105.417V86.2507C113.083 82.0165 109.651 78.584 105.417 78.584Z" fill="#F09E9E"/>
<path fill-rule="evenodd" clip-rule="evenodd" d="M105.417 78.584H99.6667C103.901 78.584 107.333 82.0165 107.333 86.2507V105.417C107.333 109.652 103.901 113.084 99.6667 113.084H105.417C109.651 113.084 113.083 109.652 113.083 105.417V86.2507C113.083 82.0165 109.651 78.584 105.417 78.584Z" fill="#F09E9E"/>
<path fill-rule="evenodd" clip-rule="evenodd" d="M105.417 9.58268V13.416H1.91666V9.58268C1.91666 5.3485 5.34914 1.91602 9.58333 1.91602H97.75C101.984 1.91602 105.417 5.3485 105.417 9.58268Z" fill="#3B8686"/>
<path fill-rule="evenodd" clip-rule="evenodd" d="M97.75 1.91602H92C96.2342 1.91602 99.6667 5.3485 99.6667 9.58268V13.416H105.417V9.58268C105.417 5.3485 101.984 1.91602 97.75 1.91602Z" fill="#3B8686"/>
<path fill-rule="evenodd" clip-rule="evenodd" d="M105.417 13.416V78.5827H51.75C47.5158 78.5827 44.0833 82.0152 44.0833 86.2494V90.0827H9.58333C5.34914 90.0827 1.91666 86.6502 1.91666 82.416V13.416H105.417Z" fill="white"/>
<path fill-rule="evenodd" clip-rule="evenodd" d="M38.3333 86.2506V90.084H44.0833V86.2506C44.0833 82.0165 47.5158 78.584 51.75 78.584H46C41.7658 78.584 38.3333 82.0165 38.3333 86.2506Z" fill="white"/>
<path fill-rule="evenodd" clip-rule="evenodd" d="M99.6667 13.416H105.417V78.5827H99.6667V13.416Z" fill="white"/>
<path d="M26.8333 55.584H23C21.9415 55.584 21.0833 56.4421 21.0833 57.5007V61.334C21.0833 62.3925 21.9415 63.2507 23 63.2507H26.8333C27.8919 63.2507 28.75 62.3925 28.75 61.334V57.5007C28.75 56.4421 27.8919 55.584 26.8333 55.584Z" fill="#CFF09E"/>
<path d="M42.1667 46H38.3333C37.2748 46 36.4167 46.8581 36.4167 47.9167V51.75C36.4167 52.8085 37.2748 53.6667 38.3333 53.6667H42.1667C43.2252 53.6667 44.0833 52.8085 44.0833 51.75V47.9167C44.0833 46.8581 43.2252 46 42.1667 46Z" fill="#CFF09E"/>
<path d="M57.5 51.75H53.6667C52.6081 51.75 51.75 52.6081 51.75 53.6667V57.5C51.75 58.5586 52.6081 59.4167 53.6667 59.4167H57.5C58.5585 59.4167 59.4167 58.5586 59.4167 57.5V53.6667C59.4167 52.6081 58.5585 51.75 57.5 51.75Z" fill="#F09E9E"/>
<path d="M72.8333 42.166H69C67.9414 42.166 67.0833 43.0241 67.0833 44.0827V47.916C67.0833 48.9746 67.9414 49.8327 69 49.8327H72.8333C73.8919 49.8327 74.75 48.9746 74.75 47.916V44.0827C74.75 43.0241 73.8919 42.166 72.8333 42.166Z" fill="#CFF09E"/>
<path d="M88.1667 49.834H84.3333C83.2748 49.834 82.4167 50.6921 82.4167 51.7507V55.584C82.4167 56.6425 83.2748 57.5007 84.3333 57.5007H88.1667C89.2252 57.5007 90.0833 56.6425 90.0833 55.584V51.7507C90.0833 50.6921 89.2252 49.834 88.1667 49.834Z" fill="#F09E9E"/>
<path fill-rule="evenodd" clip-rule="evenodd" d="M57.5 93.9174C56.5701 93.9165 55.775 93.2482 55.6141 92.3323C55.4532 91.4165 55.973 90.5172 56.8469 90.1995C57.7208 89.8817 58.6968 90.2371 59.1617 91.0424C59.7068 91.9235 60.8534 92.2119 61.7505 91.6936C62.6476 91.1754 62.9705 90.0381 62.4795 89.1257C61.0843 86.7091 58.1554 85.6431 55.5332 86.5975C52.911 87.5519 51.3526 90.2513 51.8372 92.9993C52.3218 95.7474 54.7095 97.7508 57.5 97.7507C58.4299 97.7517 59.225 98.4199 59.3859 99.3358C59.5468 100.252 59.027 101.151 58.1531 101.469C57.2792 101.786 56.3032 101.431 55.8382 100.626C55.2932 99.7447 54.1466 99.4563 53.2495 99.9745C52.3524 100.493 52.0295 101.63 52.5205 102.542C53.9157 104.959 56.8446 106.025 59.4668 105.071C62.089 104.116 63.6474 101.417 63.1628 98.6688C62.6782 95.9208 60.2905 93.9173 57.5 93.9174Z" fill="#373F41"/>
<path fill-rule="evenodd" clip-rule="evenodd" d="M74.75 90.0833C75.8085 90.0833 76.6667 89.2252 76.6667 88.1667C76.6667 87.1081 75.8085 86.25 74.75 86.25H69C67.9415 86.25 67.0833 87.1081 67.0833 88.1667V103.5C67.0833 104.559 67.9415 105.417 69 105.417H74.75C75.8085 105.417 76.6667 104.559 76.6667 103.5C76.6667 102.441 75.8085 101.583 74.75 101.583H70.9167V97.75H72.8333C73.8919 97.75 74.75 96.8919 74.75 95.8333C74.75 94.7748 73.8919 93.9167 72.8333 93.9167H70.9167V90.0833H74.75Z" fill="#373F41"/>
<path fill-rule="evenodd" clip-rule="evenodd" d="M88.1667 101.583H84.3333V88.1667C84.3333 87.1081 83.4752 86.25 82.4167 86.25C81.3581 86.25 80.5 87.1081 80.5 88.1667V101.583C80.5 103.7 82.2162 105.417 84.3333 105.417H88.1667C89.2252 105.417 90.0833 104.559 90.0833 103.5C90.0833 102.441 89.2252 101.583 88.1667 101.583Z" fill="#373F41"/>
<path fill-rule="evenodd" clip-rule="evenodd" d="M101.583 101.583H97.75V88.1667C97.75 87.1081 96.8919 86.25 95.8333 86.25C94.7748 86.25 93.9167 87.1081 93.9167 88.1667V101.583C93.9167 103.7 95.6329 105.417 97.75 105.417H101.583C102.642 105.417 103.5 104.559 103.5 103.5C103.5 102.441 102.642 101.583 101.583 101.583Z" fill="#373F41"/>
<path d="M23 65.1673V72.834C23 73.8925 23.8581 74.7507 24.9167 74.7507C25.9752 74.7507 26.8333 73.8925 26.8333 72.834V65.1673C28.9504 65.1673 30.6667 63.4511 30.6667 61.334V57.5007C30.6667 55.3836 28.9504 53.6673 26.8333 53.6673V46.0007C26.8333 44.9421 25.9752 44.084 24.9167 44.084C23.8581 44.084 23 44.9421 23 46.0007V53.6673C20.8829 53.6673 19.1667 55.3836 19.1667 57.5007V61.334C19.1667 63.4511 20.8829 65.1673 23 65.1673ZM23 57.5007H26.8333V61.334H23V57.5007Z" fill="#373F41"/>
<path d="M42.1667 44.0833V36.4167C42.1667 35.3581 41.3085 34.5 40.25 34.5C39.1915 34.5 38.3333 35.3581 38.3333 36.4167V44.0833C36.2162 44.0833 34.5 45.7996 34.5 47.9167V51.75C34.5 53.8671 36.2162 55.5833 38.3333 55.5833V63.25C38.3333 64.3086 39.1915 65.1667 40.25 65.1667C41.3085 65.1667 42.1667 64.3086 42.1667 63.25V55.5833C44.2838 55.5833 46 53.8671 46 51.75V47.9167C46 45.7996 44.2838 44.0833 42.1667 44.0833ZM38.3333 51.75V47.9167H42.1667V51.75H38.3333Z" fill="#373F41"/>
<path d="M57.5 49.8333V42.1667C57.5 41.1081 56.6419 40.25 55.5833 40.25C54.5248 40.25 53.6667 41.1081 53.6667 42.1667V49.8333C51.5496 49.8333 49.8333 51.5496 49.8333 53.6667V57.5C49.8333 59.6171 51.5496 61.3333 53.6667 61.3333V69C53.6667 70.0586 54.5248 70.9167 55.5833 70.9167C56.6419 70.9167 57.5 70.0586 57.5 69V61.3333C59.6171 61.3333 61.3333 59.6171 61.3333 57.5V53.6667C61.3333 51.5496 59.6171 49.8333 57.5 49.8333ZM53.6667 57.5V53.6667H57.5V57.5H53.6667Z" fill="#373F41"/>
<path d="M72.8333 40.2494V32.5827C72.8333 31.5241 71.9752 30.666 70.9167 30.666C69.8581 30.666 69 31.5241 69 32.5827V40.2494C66.8829 40.2494 65.1667 41.9656 65.1667 44.0827V47.916C65.1667 50.0331 66.8829 51.7494 69 51.7494V59.416C69 60.4746 69.8581 61.3327 70.9167 61.3327C71.9752 61.3327 72.8333 60.4746 72.8333 59.416V51.7494C74.9504 51.7494 76.6667 50.0331 76.6667 47.916V44.0827C76.6667 41.9656 74.9504 40.2494 72.8333 40.2494ZM69 47.916V44.0827H72.8333V47.916H69Z" fill="#373F41"/>
<path d="M88.1667 47.9173V40.2507C88.1667 39.1921 87.3085 38.334 86.25 38.334C85.1915 38.334 84.3333 39.1921 84.3333 40.2507V47.9173C82.2162 47.9173 80.5 49.6336 80.5 51.7507V55.584C80.5 57.7011 82.2162 59.4173 84.3333 59.4173V67.084C84.3333 68.1425 85.1915 69.0007 86.25 69.0007C87.3085 69.0007 88.1667 68.1425 88.1667 67.084V59.4173C90.2838 59.4173 92 57.7011 92 55.584V51.7507C92 49.6336 90.2838 47.9173 88.1667 47.9173ZM84.3333 55.584V51.7507H88.1667V55.584H84.3333Z" fill="#373F41"/>
<path fill-rule="evenodd" clip-rule="evenodd" d="M21.0833 36.4157C21.4306 36.4158 21.7712 36.321 22.0685 36.1416L40.1312 25.299L53.1894 35.0932C54.6403 36.1756 56.6494 36.1006 58.0156 34.913L71.0106 23.5414L84.0439 33.3164C85.3369 34.2655 87.08 34.3233 88.4331 33.4621L93.0695 30.3245C93.6365 29.9404 93.9555 29.2829 93.9063 28.5998C93.8571 27.9167 93.4472 27.3118 92.831 27.0128C92.2148 26.7139 91.486 26.7664 90.919 27.1505L86.342 30.2498L73.3087 20.4748C71.8578 19.3924 69.8487 19.4674 68.4825 20.6549L55.4875 32.0265L42.4312 22.2323C41.1843 21.2972 39.4954 21.2101 38.1589 22.0119L20.0962 32.8507C19.3524 33.292 18.9963 34.1769 19.2271 35.0105C19.4579 35.8441 20.2184 36.4198 21.0833 36.4157Z" fill="#373F41"/>
<path d="M9.58333 92H42.1667V105.417C42.173 110.707 46.4599 114.994 51.75 115H105.417C110.707 114.994 114.994 110.707 115 105.417V86.25C114.994 81.6977 111.792 77.7753 107.333 76.8583V9.58333C107.327 4.29323 103.04 0.00633673 97.75 0H9.58333C4.29323 0.00633673 0.00633673 4.29323 0 9.58333V82.4167C0.00633673 87.7068 4.29323 91.9937 9.58333 92ZM9.58333 88.1667C6.4077 88.1667 3.83333 85.5923 3.83333 82.4167V15.3333H103.5V76.6667H51.75C49.6957 76.6729 47.6989 77.3454 46.0594 78.5833H15.3333V21.0833C15.3333 20.0248 14.4752 19.1667 13.4167 19.1667C12.3581 19.1667 11.5 20.0248 11.5 21.0833V78.5833C11.5 80.7004 13.2162 82.4167 15.3333 82.4167H42.9793C42.4446 83.624 42.1679 84.9296 42.1667 86.25V88.1667H9.58333ZM111.167 86.25V105.417C111.167 108.592 108.592 111.167 105.417 111.167H51.75C48.5744 111.167 46 108.592 46 105.417V86.25C46 83.0744 48.5744 80.5 51.75 80.5H105.417C108.592 80.5 111.167 83.0744 111.167 86.25ZM9.58333 3.83333H97.75C100.926 3.83333 103.5 6.4077 103.5 9.58333V11.5H3.83333V9.58333C3.83333 6.4077 6.4077 3.83333 9.58333 3.83333Z" fill="#373F41"/>
</svg>
