<svg width="250" height="250" viewBox="0 0 250 250" fill="none" xmlns="http://www.w3.org/2000/svg">
<path d="M59.4595 134.143C57.8966 134.853 56.1458 134.933 54.531 134.35C33.0378 126.596 -0.22927 79.2551 51.4116 37.1301C54.6841 34.4606 59.3778 34.4698 62.6389 37.1532C113.616 79.0993 79.3831 125.089 59.4595 134.143Z" fill="#AEE49E" stroke="#20282A" stroke-width="9.74021"/>
<path d="M56.5463 87.3574V208.623C56.5462 227.129 60.3449 241.837 79.4358 242.227C98.5266 242.616 108.169 237.357 108.169 208.623V174.532C108.169 160.409 115.864 154.273 131.059 155.052C146.254 155.831 147.617 168.201 147.617 183.786V226.312C147.617 227.178 147.736 228.038 147.857 228.895C148.475 233.288 148.74 242.227 163.202 242.227C177.455 242.227 178.174 233.544 178.946 229.088C179.118 228.101 179.273 227.106 179.273 226.104V155.052" stroke="#20282A" stroke-width="9.74021" stroke-linecap="round"/>
<rect x="147.13" y="7" width="17.5324" height="43.831" rx="8.76619" fill="white" stroke="#20282A" stroke-width="9.74021"/>
<rect x="193.883" y="7" width="17.5324" height="43.831" rx="8.76619" fill="white" stroke="#20282A" stroke-width="9.74021"/>
<rect x="167.585" y="120.961" width="23.3765" height="36.0388" rx="11.6883" fill="#F09E9E" stroke="#20282A" stroke-width="9.74021"/>
<rect x="131.546" y="45.9609" width="95.4541" height="17.5324" rx="8.76619" fill="#F09E9E" stroke="#20282A" stroke-width="9.74021"/>
<path d="M141.286 63.0059C141.286 99.5317 139.338 134.109 179.76 134.109C220.182 134.109 216.773 99.5317 216.773 63.0059H141.286Z" fill="#FFE3C2" stroke="#20282A" stroke-width="9.74021" stroke-linecap="round"/>
<path d="M165.15 83.4609H193.396" stroke="#20282A" stroke-width="9.74021" stroke-linecap="round"/>
<path d="M165.15 104.889H193.396" stroke="#20282A" stroke-width="9.74021" stroke-linecap="round"/>
</svg>
