<svg width="115" height="115" viewBox="0 0 115 115" fill="none" xmlns="http://www.w3.org/2000/svg">
<path d="M51.75 82.4166C51.75 99.3542 65.479 113.083 82.4166 113.083C99.3542 113.083 113.083 99.3542 113.083 82.4166C113.083 65.479 99.3542 51.75 82.4166 51.75C65.479 51.75 51.75 65.479 51.75 82.4166Z" fill="#FFE3C2"/>
<circle cx="82.5" cy="82.5" r="22.5" stroke="#2C3436" stroke-width="14"/>
<circle cx="82.5" cy="82.5" r="30.5" stroke="#20282A" stroke-width="4"/>
<circle cx="82.4833" cy="82.4833" r="16.4833" stroke="#20282A" stroke-width="4"/>
<path d="M32.5834 63.2494C49.521 63.2494 63.25 49.5204 63.25 32.5828C63.25 15.6453 49.521 1.91602 32.5834 1.91602C15.6458 1.91602 1.91656 15.6453 1.91656 32.5828C1.91656 49.5204 15.6458 63.2494 32.5834 63.2494ZM32.5834 9.58283C45.285 9.58283 55.5834 19.8812 55.5834 32.5828C55.5834 45.2845 45.285 55.5828 32.5834 55.5828C19.8817 55.5828 9.58338 45.2845 9.58338 32.5828C9.58338 19.8812 19.8815 9.58283 32.5834 9.58283Z" fill="#79BD9A"/>
<path d="M32.5833 55.584C45.285 55.584 55.5833 45.2856 55.5833 32.584C55.5833 19.8823 45.285 9.58398 32.5833 9.58398C19.8817 9.58398 9.58334 19.8823 9.58334 32.584C9.58334 45.2856 19.8815 55.584 32.5833 55.584ZM32.5833 32.584C28.3495 32.584 24.9168 30.01 24.9168 26.834C24.9168 23.658 28.3495 21.084 32.5833 21.084C36.8172 21.084 40.2499 23.658 40.2499 26.834C40.2499 23.658 36.8172 21.084 32.5833 21.084C28.3495 21.084 24.9168 23.658 24.9168 26.834C24.9168 30.01 28.3495 32.584 32.5833 32.584C36.8172 32.584 40.2499 35.158 40.2499 38.334C40.2499 41.51 36.8172 44.084 32.5833 44.084C28.3495 44.084 24.9168 41.51 24.9168 38.334C24.9168 41.51 28.3495 44.084 32.5833 44.084C36.8172 44.084 40.2499 41.51 40.2499 38.334C40.2499 35.158 36.8172 32.584 32.5833 32.584Z" fill="#79BD9A"/>
<path d="M32.5834 57.4994C18.8218 57.4994 7.66678 46.3444 7.66678 32.5828C7.66678 18.8212 18.8216 7.66602 32.5834 7.66602C46.3452 7.66602 57.5 18.821 57.5 32.5828C57.4847 46.3368 46.3373 57.4842 32.5834 57.4994ZM32.5834 11.4994C20.9396 11.4994 11.5 20.9391 11.5 32.5828C11.5 44.2266 20.9396 53.6662 32.5834 53.6662C44.2271 53.6662 53.6668 44.2266 53.6668 32.5828C53.6533 20.9447 44.2213 11.5129 32.5834 11.4994Z" fill="#20282A"/>
<path d="M32.5834 65.1666C14.5877 65.1666 0 50.5789 0 32.5834C0 14.5879 14.5877 0 32.5834 0C50.5791 0 65.1668 14.5877 65.1668 32.5834C65.1475 50.5712 50.5712 65.1475 32.5834 65.1666ZM32.5834 3.83341C16.7058 3.83341 3.83341 16.7058 3.83341 32.5834C3.83341 48.461 16.7058 61.3334 32.5834 61.3334C48.461 61.3334 61.3334 48.461 61.3334 32.5834C61.3161 16.7134 48.4534 3.85048 32.5834 3.83341Z" fill="#20282A"/>
<path d="M82.4165 19.1666H73.6267L78.4854 14.3058L75.7753 11.5957L66.2898 21.0832L75.7753 30.5707L78.4854 27.8606L73.6267 23H82.4165C91.9386 23.0115 99.6551 30.7279 99.6665 40.25V49.8334H103.5V40.25C103.486 28.6121 94.0547 19.1801 82.4165 19.1666Z" fill="#20282A"/>
<path d="M37.3078 84.4285L34.5977 87.1387L39.4565 91.9994H32.5832C23.0611 91.988 15.3446 84.2715 15.3332 74.7494V65.166H11.5V74.7494C11.5135 86.3873 20.9453 95.8194 32.5834 95.8328H39.4567L34.5979 100.694L37.3081 103.404L46.7935 93.9162L37.3078 84.4285Z" fill="#20282A"/>
<path d="M32.5834 30.6672C29.467 30.6672 26.8334 28.9114 26.8334 26.8338C26.8334 24.7561 29.467 23.0004 32.5834 23.0004C35.6999 23.0004 38.3334 24.7561 38.3334 26.8338C38.3334 27.8917 39.1921 28.7504 40.25 28.7504C41.3079 28.7504 42.1666 27.8917 42.1666 26.8338C42.1666 23.1309 38.868 20.0353 34.5 19.3224V15.334H30.6666V19.3226C26.2986 20.0355 23 23.1311 23 26.834C23 31.0623 27.299 34.5006 32.5834 34.5006C35.6999 34.5006 38.3334 36.2564 38.3334 38.334C38.3334 40.4116 35.6999 42.1674 32.5834 42.1674C29.467 42.1674 26.8334 40.4116 26.8334 38.334C26.8334 37.2761 25.9747 36.4174 24.9168 36.4174C23.8589 36.4174 23.0002 37.2761 23.0002 38.334C23.0002 42.0369 26.2988 45.1325 30.6668 45.8454V49.834H34.5V45.8454C38.868 45.1325 42.1666 42.0369 42.1666 38.334C42.1666 34.1057 37.8676 30.6672 32.5834 30.6672Z" fill="#20282A"/>
<path d="M85.9472 85.3837C88.3612 84.8472 90.9093 81.4945 87.9589 79.4829C85.8913 78.0731 83.4987 75.4005 82.4604 73.9844M82.4604 87.1271V74.2526" stroke="#20282A" stroke-width="2.14575" stroke-linecap="round"/>
<path d="M83.5632 86.6346C83.5632 88.8566 81.7619 90.6579 79.5399 90.6579C77.3179 90.6579 75.5167 88.8566 75.5167 86.6346C75.5167 84.4126 77.3179 82.6113 79.5399 82.6113C81.7619 82.6113 83.5632 84.4126 83.5632 86.6346Z" fill="#20282A"/>
</svg>
