<svg width="300" height="300" viewBox="0 0 300 300" fill="none" xmlns="http://www.w3.org/2000/svg">
<g clip-path="url(#clip0)">
<path d="M26.001 43.8H15C9.49951 43.8 5 48.2995 5 53.8V233.8C5 239.3 9.49951 243.8 15 243.8H45H285.5C288.333 247.157 293.9 225.971 293.5 114.371C293.383 81.628 293.32 60.2506 293.294 46.9985C291.234 43.7266 281.172 37.756 255 37.3711C227.8 36.9711 191.333 37.2044 176.5 37.3711L150.5 58.2995L117.176 45.0619L113.999 43.8C109.998 29.3005 110 17.3713 72 7.37129C41.6 -0.628715 28.6673 28.3238 26.001 43.8Z" fill="white"/>
<path d="M115 39.9287H113.999C115 43.4297 115 46.4277 115 49.9287C115 74.9287 95 94.9287 70 94.9287C45 94.9287 25 74.9287 25 49.9287C25 46.4277 25.5005 43.4297 26.001 39.9287H15C9.49951 39.9287 5 44.4282 5 49.9287V229.929C5 235.429 9.49951 239.929 15 239.929H45V124.929C45 119.428 49.4995 114.929 55 114.929H140V54.4282L115 39.9287Z" fill="#CFF09E"/>
<path d="M185 192.93V239.929H285C290.5 239.929 295 235.43 295 229.929V204.929H230C213.999 204.929 198.501 200.93 185 192.93Z" fill="#CFF09E"/>
<path d="M55 114.929H175C180.5 114.929 185 119.428 185 124.929V284.929C185 290.429 180.5 294.929 175 294.929H55C49.4995 294.929 45 290.429 45 284.929V124.929C45 119.428 49.4995 114.929 55 114.929Z" fill="#79BD9A"/>
<path d="M70 134.929H160V174.929H70V134.929Z" fill="#CFF09E"/>
<path d="M75 194.93H105V224.93H75V194.93Z" fill="#A8DBA8"/>
<path d="M75 244.93H105V274.93H75V244.93Z" fill="#A8DBA8"/>
<path d="M130 194.93H160V274.93H130V194.93Z" fill="#A8DBA8"/>
<path d="M89.9998 79.9292C64.9998 79.9292 44.9998 59.9292 44.9998 34.9292C44.9998 25.4297 48.0003 15.9302 53.9989 7.92969C30.5003 16.4282 18.9989 42.4292 27.4999 65.9302C36.0008 89.4287 61.9994 100.93 85.5003 92.4292C93.5008 89.4287 100.5 83.9282 106.001 77.4292C101.001 78.9282 95.5003 79.9292 89.9998 79.9292Z" fill="#A8DBA8"/>
<path d="M275 184.93H255V104.93C255 99.4292 259.5 94.9297 265 94.9297C270.501 94.9297 275 99.4292 275 104.93V184.93Z" fill="#79BD9A"/>
<path d="M265 219.93L275 184.93H255L265 219.93Z" fill="#A8DBA8"/>
<path d="M255 119.929H275V144.929H255V119.929Z" fill="#CFF09E"/>
<path d="M285 34.9298H175C173.999 34.9298 173 35.4303 172 35.9308L149.5 53.9288L118 35.9308C110 9.42931 82.5 -5.57069 56.001 1.92931C40 6.92931 27.5 18.9288 22.5 34.9298H15C6.49902 34.9298 0 41.4288 0 49.9298V229.93C0 238.431 6.49902 244.93 15 244.93H40V284.93C40 293.431 46.499 299.93 55 299.93H175C183.501 299.93 190 293.431 190 284.93V244.93H285C293.501 244.93 300 238.431 300 229.93V49.9298C300 41.4288 293.501 34.9298 285 34.9298ZM110 49.9298C110 69.9298 95 86.9293 75 89.4293V83.9288C85.5005 80.9308 91.9995 69.9298 88.999 59.4293C86.499 50.9308 78.999 44.9298 70 44.4293C64.4995 44.4293 60 39.9298 60 34.4293C60 28.9288 64.4995 24.4293 70 24.4293C75.5005 24.4293 80 28.9288 80 34.4293C80 37.4298 81.9995 39.4293 85 39.4293C88.0005 39.4293 90 37.4298 90 34.4293C90 25.4303 83.999 17.4298 75 14.9298V10.4303C95 12.9303 110 29.9298 110 49.9298ZM65 10.4303V15.9308C54.4995 18.9288 48.0005 29.9298 51.001 40.4303C53.501 48.9288 61.001 54.9298 70 55.4303C75.5005 55.4303 80 59.9298 80 65.4303C80 70.9308 75.5005 75.4303 70 75.4303C64.4995 75.4303 60 70.9308 60 65.4303C60 62.4298 58.0005 60.4303 55 60.4303C51.9995 60.4303 50 62.4298 50 65.4303C50 74.4293 56.001 82.4298 65 84.9298V90.4303C43.0005 87.4298 27.5 67.4298 30.5005 45.4303C33.0005 26.9293 46.9995 12.4298 65 10.4303ZM15 234.93C11.9995 234.93 10 232.93 10 229.93V49.9298C10 46.9293 11.9995 44.9298 15 44.9298H20V49.9298C20 77.4298 42.5 99.9298 70 99.9298C97.5 99.9298 120 77.4298 120 49.9298C120 49.4293 120 48.9288 120 48.4308L145 62.9303V109.93H55C46.499 109.93 40 116.429 40 124.93V234.93H15ZM180 284.93C180 287.93 178 289.93 175 289.93H55C51.9995 289.93 50 287.93 50 284.93V124.93C50 121.929 51.9995 119.93 55 119.93H175C178 119.93 180 121.929 180 124.93V284.93ZM290 229.93C290 232.93 288 234.93 285 234.93H190V124.93C190 116.429 183.501 109.93 175 109.93H155V62.4298L176.499 44.9298H285C288 44.9298 290 46.9293 290 49.9298V229.93Z" fill="#3B8686"/>
<path d="M160 134.929H70C66.9995 134.929 65 136.928 65 139.929V179.929C65 182.929 66.9995 184.929 70 184.929H160C163 184.929 165 182.929 165 179.929V139.929C165 136.928 163 134.929 160 134.929ZM155 174.929H75V144.929H155V174.929Z" fill="#3B8686"/>
<path d="M105 194.929H75C71.9995 194.929 70 196.928 70 199.929V229.929C70 232.929 71.9995 234.929 75 234.929H105C108 234.929 110 232.929 110 229.929V199.929C110 196.928 108 194.929 105 194.929ZM100 224.929H80V204.929H100V224.929Z" fill="#3B8686"/>
<path d="M105 244.929H75C71.9995 244.929 70 246.928 70 249.929V279.929C70 282.929 71.9995 284.929 75 284.929H105C108 284.929 110 282.929 110 279.929V249.929C110 246.928 108 244.929 105 244.929ZM100 274.929H80V254.929H100V274.929Z" fill="#3B8686"/>
<path d="M160 194.929H130C127 194.929 125 196.928 125 199.929V279.929C125 282.929 127 284.929 130 284.929H160C163 284.929 165 282.929 165 279.929V199.929C165 196.928 163 194.929 160 194.929ZM155 274.929H135V204.929H155V274.929Z" fill="#3B8686"/>
<path d="M130 164.929H140C143 164.929 145 162.929 145 159.929C145 156.928 143 154.929 140 154.929H130C127 154.929 125 156.928 125 159.929C125 162.929 127 164.929 130 164.929Z" fill="#3B8686"/>
<path d="M100 164.929H110C113 164.929 115 162.929 115 159.929C115 156.928 113 154.929 110 154.929H100C96.9995 154.929 95 156.928 95 159.929C95 162.929 96.9995 164.929 100 164.929Z" fill="#3B8686"/>
<path d="M275 59.9287H195C192 59.9287 190 61.9282 190 64.9287C190 67.9292 192 69.9287 195 69.9287H200V79.9287H185C182 79.9287 180 81.9282 180 84.9287C180 87.9292 182 89.9287 185 89.9287H200V214.929C200 217.929 202 219.929 205 219.929C208 219.929 210 217.929 210 214.929V149.929H225V194.929C225 197.929 227 199.929 230 199.929C233 199.929 235 197.929 235 194.929V89.9287H250C253 89.9287 255 87.9292 255 84.9287C255 81.9282 253 79.9287 250 79.9287H235V69.9287H275C278 69.9287 280 67.9292 280 64.9287C280 61.9282 278 59.9287 275 59.9287ZM225 139.929H210V89.9287H225V139.929ZM225 79.9287H210V69.9287H225V79.9287Z" fill="#3B8686"/>
<path d="M265 94.9287C256.499 94.9287 250 101.428 250 109.929V189.929V190.93V191.428L260 226.428C261.001 228.928 263.501 230.429 266.001 229.929C267.5 229.428 268.999 227.929 269.5 226.428L279.5 191.428V190.93C279.5 190.93 280 190.429 280 189.929V109.929C280 101.428 273.501 94.9287 265 94.9287ZM260 154.929H270V184.929H260V154.929ZM260 129.929H270V144.929H260V129.929ZM265 104.929C268.001 104.929 270 106.928 270 109.929V119.929H260V109.929C260 106.928 262 104.929 265 104.929ZM265 206.928L261.499 194.929H268.001L265 206.928Z" fill="#3B8686"/>
<path d="M25 109.929C21.9995 109.929 20 111.928 20 114.929V194.929C20 197.929 21.9995 199.929 25 199.929C28.0005 199.929 30 197.929 30 194.929V114.929C30 111.928 28.0005 109.929 25 109.929Z" fill="#3B8686"/>
</g>
<defs>
<clipPath id="clip0">
<rect width="300" height="300" fill="white"/>
</clipPath>
</defs>
</svg>
