<svg width="115" height="115" viewBox="0 0 115 115" fill="none" xmlns="http://www.w3.org/2000/svg">
<g clip-path="url(#clip0)">
<path d="M98.7167 85.6989H61.33L64.8753 80.3541C66.1167 78.4843 66.6134 76.2176 66.2676 74C65.9217 71.7824 64.7584 69.7746 63.0065 68.3716L43.4206 52.6777H12.3535V80.1412H26.7402L53.6933 98.0515H105.904V92.8882C105.904 91.9442 105.719 91.0093 105.358 90.1371C104.997 89.2649 104.467 88.4723 103.8 87.8047C103.132 87.1371 102.34 86.6075 101.468 86.2462C100.596 85.8849 99.6607 85.6989 98.7167 85.6989Z" fill="#FFE3C2"/>
<path d="M1.57227 41.5352H12.3535V91.2843H1.57227V41.5352Z" fill="#54528E"/>
<path d="M57.5 84.2011C57.1429 84.2018 56.7963 84.08 56.518 83.8561L39.9391 70.5745C39.778 70.4453 39.6439 70.2857 39.5445 70.1048C39.4451 69.9238 39.3823 69.7251 39.3597 69.5198C39.3371 69.3146 39.3551 69.1069 39.4128 68.9087C39.4704 68.7104 39.5665 68.5254 39.6957 68.3643C39.8248 68.2032 39.9844 68.0691 40.1654 67.9697C40.3463 67.8703 40.5451 67.8075 40.7503 67.7848C40.9556 67.7622 41.1632 67.7803 41.3615 67.8379C41.5598 67.8956 41.7447 67.9917 41.9058 68.1208L58.4829 81.3989C58.7388 81.6019 58.925 81.8797 59.0157 82.1935C59.1064 82.5073 59.097 82.8416 58.9889 83.1498C58.8808 83.4581 58.6793 83.725 58.4124 83.9134C58.1456 84.1018 57.8267 84.2024 57.5 84.2011Z" fill="#945133"/>
<path d="M82.4945 22.2581C79.0908 18.8848 74.4895 16.9971 69.6973 17.0081C64.9052 17.0191 60.3126 18.9279 56.9244 22.3168C53.5362 25.7057 51.6283 30.2987 51.6184 35.0909C51.6084 39.883 53.4971 44.484 56.8711 47.887L82.4945 73.5104L108.121 47.887C111.519 44.4887 113.429 39.8796 113.429 35.0735C113.429 30.2674 111.52 25.6581 108.122 22.2595C104.724 18.8609 100.115 16.9514 95.3086 16.9512C90.5025 16.9509 85.8931 18.8599 82.4945 22.2581Z" fill="#3B8686"/>
<path d="M82.4945 33.5078L85.135 38.858L91.0387 39.716L86.7666 43.8803L87.7755 49.7605L82.4945 46.9844L77.2135 49.7605L78.2225 43.8803L73.9495 39.716L79.854 38.858L82.4945 33.5078Z" fill="#CFF09E"/>
<path fill-rule="evenodd" clip-rule="evenodd" d="M109.232 21.1468C105.721 17.6444 101.02 15.5933 96.0648 15.4023C91.1096 15.2113 86.2643 16.8945 82.4945 20.1163C78.7272 16.8891 73.8808 15.2025 68.9239 15.3935C63.967 15.5846 59.2648 17.6392 55.757 21.1468C52.0854 24.4008 50.5556 29.6512 50.2496 31.8697C49.746 34.9565 49.9827 38.1187 50.9402 41.0962C51.8977 44.0736 53.5486 46.781 55.757 48.9957L81.3823 74.6218C81.5282 74.768 81.7015 74.8839 81.8923 74.963C82.0831 75.0421 82.2876 75.0828 82.4941 75.0828C82.7006 75.0828 82.9051 75.0421 83.0959 74.963C83.2866 74.8839 83.46 74.768 83.6059 74.6218L109.232 48.9957C111.061 47.1671 112.512 44.9961 113.502 42.6067C114.492 40.2173 115.001 37.6563 115.001 35.0699C115.001 32.4836 114.492 29.9225 113.502 27.5331C112.512 25.1437 111.061 22.9727 109.232 21.1441V21.1468ZM63.349 19.7832C61.3413 20.6148 59.5172 21.8338 57.9807 23.3705C54.7216 27.037 53.5375 30.904 53.3528 32.3791C52.9296 34.9734 53.1284 37.6311 53.933 40.1335C54.7376 42.6359 56.1248 44.9114 57.9807 46.773L82.4945 71.2868L107.008 46.773C108.559 45.2394 109.791 43.4145 110.634 41.4031C111.477 39.3918 111.914 37.2336 111.92 35.0527C111.926 32.8719 111.501 30.7113 110.669 28.6953C109.838 26.6793 108.615 24.8476 107.073 23.3055C105.531 21.7634 103.7 20.5413 101.684 19.7095C99.6675 18.8777 97.507 18.4526 95.3261 18.4586C93.1453 18.4647 90.9871 18.9017 88.9757 19.7447C86.9644 20.5876 85.1394 21.8198 83.6059 23.3705C83.3109 23.6651 82.911 23.8307 82.4941 23.8307C82.0771 23.8307 81.6772 23.6651 81.3823 23.3705C79.8458 21.8338 78.0216 20.6148 76.014 19.7832C74.0063 18.9515 71.8545 18.5235 69.6815 18.5235C67.5084 18.5235 65.3566 18.9515 63.349 19.7832Z" fill="#373F41"/>
<path d="M10.7813 89.713H3.14453V43.1074H10.7813V89.713Z" fill="#373F41"/>
<path fill-rule="evenodd" clip-rule="evenodd" d="M98.7167 84.1265H90.6856L64.2598 84.131L66.1861 81.2191C67.6555 79.0264 68.2453 76.3608 67.8383 73.7528C67.4312 71.1449 66.0571 68.7858 63.9894 67.1451L44.3999 51.4539C44.1211 51.2303 43.7744 51.1086 43.417 51.1089H13.9258V41.5352C13.9255 41.1182 13.7598 40.7185 13.465 40.4237C13.1702 40.1289 12.7704 39.9631 12.3535 39.9629H1.57227C1.15535 39.9631 0.755574 40.1289 0.460769 40.4237C0.165963 40.7185 0.000238035 41.1182 0 41.5352L0 91.2816C0.000238035 91.6986 0.165963 92.0983 0.460769 92.3931C0.755574 92.6879 1.15535 92.8537 1.57227 92.8539H12.3535C12.7704 92.8537 13.1702 92.6879 13.465 92.3931C13.7598 92.0983 13.9255 91.6986 13.9258 91.2816V81.7115H26.2649L52.8227 99.3586C53.0806 99.5302 53.3835 99.6218 53.6933 99.6218H105.904C106.321 99.6216 106.721 99.4559 107.016 99.1611C107.311 98.8663 107.476 98.4665 107.476 98.0496V92.8863C107.474 90.5638 106.55 88.3373 104.908 86.6951C103.266 85.0528 101.039 84.1291 98.7167 84.1265ZM98.7167 87.271H90.6856L61.33 87.2755C61.1697 87.2735 61.0106 87.2468 60.8584 87.1964C60.8152 87.183 60.7766 87.1605 60.7344 87.1434C60.6214 87.0963 60.5143 87.036 60.4154 86.9637C60.3948 86.9485 60.3687 86.9431 60.348 86.9269L39.9391 70.5754C39.778 70.4462 39.6439 70.2866 39.5445 70.1057C39.4451 69.9247 39.3823 69.7259 39.3597 69.5207C39.3371 69.3155 39.3551 69.1078 39.4127 68.9095C39.4704 68.7113 39.5665 68.5263 39.6957 68.3652C39.8248 68.2041 39.9844 68.07 40.1654 67.9706C40.3463 67.8711 40.5451 67.8083 40.7503 67.7857C40.9555 67.7631 41.1632 67.7811 41.3615 67.8388C41.5597 67.8964 41.7447 67.9926 41.9058 68.1217L60.9716 83.3952L63.5654 79.4852C64.5972 77.9455 65.0115 76.0738 64.7258 74.2425C64.4401 72.4112 63.4754 70.7546 62.0236 69.6023L42.8645 54.2534H13.9258V78.567H26.7402C27.0497 78.5671 27.3523 78.6587 27.6099 78.8302L54.1677 96.48H104.332V92.8863C104.33 91.3975 103.738 89.9702 102.685 88.9175C101.633 87.8648 100.205 87.2727 98.7167 87.271ZM3.14453 89.713H10.7813V43.1074H3.14453V89.713Z" fill="#373F41"/>
<path d="M92.5391 39.2306C92.4483 38.9515 92.2814 38.7033 92.0571 38.514C91.8327 38.3248 91.56 38.202 91.2696 38.1596L86.1835 37.4202L83.9087 32.8112C83.7786 32.5483 83.5777 32.327 83.3285 32.1723C83.0793 32.0175 82.7919 31.9355 82.4986 31.9355C82.2053 31.9355 81.9178 32.0175 81.6686 32.1723C81.4195 32.327 81.2185 32.5483 81.0885 32.8112L78.8145 37.4202L73.7285 38.1596C73.4381 38.2018 73.1654 38.3244 72.9411 38.5135C72.7167 38.7026 72.5498 38.9506 72.4591 39.2297C72.3685 39.5087 72.3577 39.8075 72.428 40.0924C72.4983 40.3772 72.6469 40.6367 72.857 40.8415L76.5406 44.4289L75.6718 49.4943C75.6222 49.7835 75.6545 50.0807 75.765 50.3525C75.8755 50.6243 76.0598 50.8597 76.2972 51.0321C76.5345 51.2046 76.8153 51.3072 77.1079 51.3284C77.4005 51.3496 77.6932 51.2884 77.9529 51.1519L82.5026 48.7603L87.0514 51.1519C87.3111 51.2888 87.6039 51.3502 87.8966 51.3292C88.1894 51.3082 88.4704 51.2056 88.7078 51.0331C88.9453 50.8605 89.1297 50.6249 89.2401 50.353C89.3505 50.081 89.3825 49.7836 89.3325 49.4943L88.4646 44.4289L92.1482 40.8415C92.3571 40.6361 92.5044 40.3765 92.5735 40.0918C92.6426 39.8071 92.6306 39.5088 92.5391 39.2306ZM85.6732 42.7542C85.4911 42.9324 85.355 43.1522 85.2767 43.3946C85.1985 43.6371 85.1804 43.8949 85.224 44.1459L85.693 46.8862L83.2321 45.5924C83.0065 45.4738 82.7553 45.4119 82.5004 45.4119C82.2454 45.4119 81.9943 45.4738 81.7686 45.5924L79.3078 46.8862L79.7777 44.1459C79.8212 43.8949 79.8031 43.6371 79.7248 43.3946C79.6465 43.1522 79.5105 42.9324 79.3284 42.7542L77.3375 40.8136L80.0885 40.4138C80.3409 40.3772 80.5806 40.2797 80.7869 40.1298C80.9932 39.9798 81.1599 39.7819 81.2727 39.5531L82.5035 37.0599L83.7335 39.5531C83.8463 39.7818 84.013 39.9797 84.2193 40.1296C84.4256 40.2795 84.6653 40.3771 84.9176 40.4138L87.6695 40.8136L85.6732 42.7542Z" fill="#CFF09E"/>
</g>
<defs>
<clipPath id="clip0">
<rect width="115" height="115" fill="white"/>
</clipPath>
</defs>
</svg>
