<svg width="300" height="300" viewBox="0 0 300 300" fill="none" xmlns="http://www.w3.org/2000/svg">
<g clip-path="url(#clip0)">
<path d="M115.069 4.99707H95.0791V74.9619H205.024V59.9694V4.99707H115.069Z" fill="white"/>
<path d="M165.044 59.9694C137.445 59.9694 115.069 37.5954 115.069 9.99455V4.99707H95.0791V74.9619H205.024V59.9694H165.044Z" fill="#CFF09E"/>
<path d="M165.044 39.9798C165.044 48.2593 158.333 54.9722 150.051 54.9722C141.772 54.9722 135.059 48.2593 135.059 39.9798C135.059 31.7002 141.772 24.9873 150.051 24.9873C158.333 24.9873 165.044 31.7002 165.044 39.9798Z" fill="#A8DBA8"/>
<path d="M185.033 4.99707H205.023V24.987H200.026C191.746 24.987 185.033 18.2741 185.033 9.99456V4.99707Z" fill="#A8DBA8"/>
<path d="M95.0786 4.99707H115.069V9.99456C115.069 18.2741 108.358 24.987 100.076 24.987H95.0786V4.99707Z" fill="#A8DBA8"/>
<path d="M95.0786 54.9717H100.076C108.358 54.9717 115.069 61.6846 115.069 69.9641V74.9616H95.0786V54.9717Z" fill="#A8DBA8"/>
<path d="M200.026 54.9717H205.023V74.9616H185.033V69.9641C185.033 61.6846 191.746 54.9717 200.026 54.9717Z" fill="#A8DBA8"/>
<path d="M190.031 39.9799C190.031 42.7397 187.796 44.9774 185.034 44.9774C182.274 44.9774 180.036 42.7397 180.036 39.9799C180.036 37.2201 182.274 34.9824 185.034 34.9824C187.796 34.9824 190.031 37.2201 190.031 39.9799Z" fill="#A8DBA8"/>
<path d="M120.066 39.9799C120.066 42.7397 117.831 44.9774 115.069 44.9774C112.309 44.9774 110.071 42.7397 110.071 39.9799C110.071 37.2201 112.309 34.9824 115.069 34.9824C117.831 34.9824 120.066 37.2201 120.066 39.9799Z" fill="#A8DBA8"/>
<path d="M294.978 89.9543V34.982L274.988 4.99707L254.998 34.982V54.9719" fill="#A8DBA8"/>
<path d="M46.1039 101.974V41.9795H55.0989L30.1114 6.99707L5.12402 41.9795H15.119V106.957" fill="white"/>
<path d="M45.1039 49.9744V39.9795H55.0989L30.1114 4.99707L5.12402 39.9795H15.119V84.9568" fill="#A8DBA8"/>
<path d="M146.503 178.86L150.051 147.025L143.006 139.929C139.256 136.176 134.168 134.065 128.863 134.065C123.558 134.065 118.47 136.176 114.72 139.929L75.8406 178.809C68.0564 186.612 68.0564 199.243 75.8406 207.046L97.5777 227.734L146.503 178.86Z" fill="#CFF09E"/>
<path d="M5.20703 122.28L61.746 65.7412L111.221 115.213L54.6792 171.755L5.20703 122.28Z" fill="#79BD9A"/>
<path d="M65.2646 161.176L104.137 122.304L118.273 136.437L79.4006 175.309L65.2646 161.176Z" fill="#CFF09E"/>
<path d="M195.973 242.449L203.04 249.518C206.944 253.42 206.944 259.75 203.04 263.652C199.138 267.556 192.808 267.556 188.906 263.652L181.837 256.585L195.973 242.449Z" fill="#CFF09E"/>
<path d="M181.869 256.543L188.936 263.61C192.84 267.514 192.84 273.841 188.936 277.746C185.034 281.648 178.704 281.648 174.802 277.746L167.733 270.676L181.869 256.543Z" fill="#CFF09E"/>
<path d="M220.716 189.456L183.5 148.5L195.98 136.431L234.86 175.312L220.716 189.456Z" fill="white"/>
<path d="M210.055 228.237L217.125 235.304C221.026 239.208 221.026 245.536 217.125 249.44C213.22 253.342 206.893 253.342 202.989 249.44L195.922 242.371L210.055 228.237Z" fill="#CFF09E"/>
<path d="M167.75 270.721L174.816 277.787C178.721 281.692 178.721 288.019 174.816 291.923C170.915 295.828 164.585 295.828 160.683 291.923L153.614 284.857L167.75 270.721Z" fill="#CFF09E"/>
<path d="M238.391 72.8291L294.93 129.368L241.924 182.374L185.383 125.835L238.391 72.8291Z" fill="#79BD9A"/>
<path d="M220.716 189.456L182.5 149.5C175.333 144.5 159 137 151 147C143 157 145.667 170.042 148 175.312L92.5 231.5L148 289.5L226.5 209.5C227.311 205.682 227.289 196.328 220.716 189.456Z" fill="white"/>
<path d="M234.86 175.312L195.98 136.431L182.5 149.5L220.716 189.456L234.86 175.312Z" fill="white"/>
<path d="M220.717 189.456L195.98 136.431L234.86 175.312L220.717 189.456Z" fill="#CFF09E"/>
<path d="M225.865 198.601C225.065 202.032 223.337 205.18 220.868 207.695L153.602 274.861C151.215 277.233 147.799 278.248 144.505 277.56L171.242 238.93L144.456 265.716C142.58 267.592 140.037 268.646 137.384 268.646C134.732 268.646 132.187 267.592 130.313 265.716C130.013 265.415 129.764 265.066 129.464 264.718L157.099 224.738L130.313 251.523C128.439 253.4 125.894 254.454 123.241 254.454C120.589 254.454 118.044 253.4 116.17 251.523C115.877 251.214 115.608 250.879 115.369 250.523L143.007 210.543L116.17 237.331C114.295 239.208 111.75 240.262 109.098 240.262C106.445 240.262 103.9 239.208 102.026 237.331L101.477 236.68L146.455 178.76L96.98 228.234C93.105 232.134 93.105 238.429 96.98 242.329C98.854 244.205 101.399 245.26 104.052 245.26C106.704 245.26 109.247 244.205 111.123 242.329C107.217 246.233 107.217 252.565 111.123 256.47C115.028 260.376 121.36 260.376 125.264 256.47C121.36 260.376 121.36 266.709 125.264 270.613C129.171 274.52 135.503 274.52 139.407 270.613C137.275 272.758 136.228 275.752 136.56 278.758C136.582 278.858 136.582 278.961 136.56 279.058C136.704 280.022 136.972 280.964 137.36 281.857C137.423 282.001 137.509 282.136 137.609 282.258C138.053 283.18 138.644 284.024 139.359 284.756C141.233 286.633 143.778 287.687 146.43 287.687C149.083 287.687 151.625 286.633 153.502 284.756L220.717 217.69C225.68 212.681 227.637 205.426 225.865 198.601Z" fill="#CFF09E"/>
<path d="M114.72 139.929C118.47 136.176 123.558 134.065 128.863 134.065C134.168 134.065 139.256 136.176 143.006 139.929L175.038 171.764C176.917 173.638 177.972 176.183 177.972 178.835C177.972 181.488 176.917 184.031 175.038 185.907C173.164 187.784 170.622 188.838 167.969 188.838C165.314 188.838 162.772 187.784 160.898 185.907L137.857 162.867" fill="#CFF09E"/>
<path d="M291.382 125.837L241.907 175.312L213.672 147.025L235.009 125.837C236.707 123.853 236.595 120.898 234.747 119.051C232.903 117.206 229.945 117.092 227.964 118.79L206.573 139.929L192.481 125.786L241.907 76.3115C243.844 74.3618 243.844 71.214 241.907 69.2642C239.957 67.3267 236.809 67.3267 234.86 69.2642L181.837 122.289C180.89 123.226 180.358 124.505 180.358 125.837C180.358 127.17 180.89 128.446 181.837 129.385L188.933 136.43L181.837 143.529C173.448 135.132 160.31 133.795 150.403 140.33L146.503 136.43C141.821 131.76 135.479 129.136 128.863 129.134C125.747 129.124 122.658 129.72 119.769 130.884L111.172 122.289L114.72 118.79C115.667 117.851 116.199 116.574 116.199 115.242C116.199 113.91 115.667 112.631 114.72 111.694L65.094 62.2195C63.1346 60.2722 59.9697 60.2844 58.0248 62.2439C56.0776 64.2033 56.0898 67.3682 58.0492 69.3155L103.976 115.242L100.428 118.79L75.4404 143.529L57.7979 125.837C56.8609 124.891 55.5822 124.359 54.2499 124.359C52.9175 124.359 51.6413 124.891 50.7019 125.837C48.7644 127.785 48.7644 130.935 50.7019 132.882L68.3932 150.573L61.2971 157.621L54.6501 164.917L8.72348 118.79C7.78645 117.843 6.5078 117.311 5.17546 117.311C3.84312 117.311 2.56447 117.843 1.62744 118.79C-0.310059 120.74 -0.310059 123.888 1.62744 125.837L51.1021 175.312C52.0464 176.247 53.3226 176.769 54.6501 176.761C55.98 176.769 57.2562 176.247 58.1981 175.312L65.094 168.265L72.1413 175.312C62.3879 185.07 62.3879 200.885 72.1413 210.643L90.4816 228.984C88.3684 233.488 88.6247 238.747 91.1673 243.022C93.7124 247.297 98.2097 250.033 103.175 250.323C103.307 254.076 104.84 257.644 107.475 260.318C110.149 262.953 113.717 264.486 117.47 264.618C117.751 272.307 123.922 278.478 131.611 278.758C131.887 283.734 134.617 288.248 138.895 290.803C143.172 293.358 148.441 293.619 152.95 291.503L157.099 295.652C161.313 299.832 167.596 301.132 173.121 298.968C178.648 296.806 182.379 291.586 182.635 285.657C190.265 285.235 196.359 279.142 196.778 271.514C204.409 271.091 210.499 265.001 210.922 257.37C216.851 257.114 222.071 253.383 224.235 247.856C226.397 242.329 225.097 236.046 220.916 231.834L217.368 228.335L224.465 221.239C232.729 212.803 233.959 199.733 227.415 189.904L235.009 182.359L238.559 185.907C240.506 187.845 243.654 187.845 245.604 185.907L298.478 132.882C300.415 130.935 300.415 127.785 298.478 125.837C297.54 124.891 296.262 124.359 294.93 124.359C293.597 124.359 292.319 124.891 291.382 125.837ZM72.2926 161.169L104.125 129.385L111.172 136.43L79.3886 168.265L72.2926 161.169ZM75.089 193.003C75.0792 189.011 76.6629 185.18 79.4886 182.359L82.9854 178.86L118.368 143.477C124.298 137.816 133.629 137.816 139.559 143.477L171.342 175.261C173.04 177.245 172.926 180.2 171.081 182.047C169.234 183.892 166.278 184.006 164.295 182.308L141.257 159.27C139.283 157.281 136.074 157.272 134.085 159.246C132.099 161.217 132.087 164.429 134.061 166.415L143.006 175.312L97.0286 221.239L79.3886 203.598C76.6117 200.773 75.067 196.964 75.089 193.003ZM171.242 288.404C169.292 290.342 166.144 290.342 164.195 288.404L160.647 284.856L167.743 277.809L171.242 281.308C172.189 282.245 172.721 283.524 172.721 284.856C172.721 286.189 172.189 287.467 171.242 288.404ZM185.385 274.261C183.435 276.199 180.288 276.199 178.338 274.261L175.039 270.713L178.589 267.165L182.086 263.666L185.634 267.165C186.581 268.105 187.113 269.381 187.113 270.713C187.113 272.045 186.581 273.324 185.634 274.261H185.385ZM199.528 260.118C197.579 262.055 194.431 262.055 192.481 260.118L188.933 256.57L195.98 249.525L199.528 253.073C201.466 255.023 201.466 258.171 199.528 260.118ZM213.672 245.977C212.732 246.921 211.456 247.453 210.121 247.453C208.789 247.453 207.513 246.921 206.573 245.977L203.076 242.427L210.021 235.382L213.572 238.93C215.536 240.85 215.58 244.001 213.672 245.977ZM217.22 214.191L203.076 228.335L188.584 242.778L178.338 253.073L175.039 256.37L150.051 281.357C148.104 283.295 144.956 283.295 143.006 281.357C141.069 279.41 141.069 276.262 143.006 274.312L175.039 242.427C176.466 241.207 177.088 239.289 176.649 237.463C176.21 235.638 174.782 234.213 172.957 233.774C171.132 233.335 169.214 233.954 167.994 235.382L136.159 267.165C134.175 268.863 131.22 268.749 129.376 266.904C127.528 265.057 127.416 262.102 129.112 260.118L160.898 228.335C161.842 227.398 162.374 226.119 162.374 224.787C162.374 223.454 161.842 222.178 160.898 221.239C158.948 219.301 155.8 219.301 153.851 221.239L122.016 253.073C120.066 255.011 116.919 255.011 114.971 253.073C114.024 252.134 113.493 250.857 113.493 249.525C113.493 248.193 114.024 246.914 114.971 245.977L146.755 214.191C147.701 213.254 148.233 211.976 148.233 210.643C148.233 209.311 147.701 208.035 146.755 207.095C144.805 205.158 141.657 205.158 139.707 207.095L107.873 238.93C105.913 240.875 102.748 240.865 100.801 238.905C98.8563 236.946 98.8685 233.779 100.828 231.834L150.303 182.359L157.35 189.455C161.632 193.772 168.099 195.075 173.719 192.752C179.341 190.429 183.001 184.941 182.986 178.86C182.981 174.885 181.4 171.073 178.589 168.265L158.048 147.726C163.763 145.12 170.488 146.247 175.039 150.573L217.469 193.003C220.263 195.819 221.827 199.631 221.817 203.598C221.761 207.6 220.104 211.417 217.22 214.191ZM220.716 182.359L188.933 150.573L195.98 143.529L227.812 175.312L220.716 182.359Z" fill="#3B8686"/>
<path d="M150.051 59.9701C161.093 59.9701 170.041 51.0195 170.041 39.9802C170.041 28.9408 161.093 19.9902 150.051 19.9902C139.012 19.9902 130.062 28.9408 130.062 39.9802C130.062 51.0195 139.012 59.9701 150.051 59.9701ZM150.051 29.9852C155.574 29.9852 160.046 34.4605 160.046 39.9802C160.046 45.4999 155.574 49.9752 150.051 49.9752C144.532 49.9752 140.056 45.4999 140.056 39.9802C140.056 34.4605 144.532 29.9852 150.051 29.9852Z" fill="#3B8686"/>
<path d="M95.079 79.9597H205.024C207.786 79.9597 210.021 77.7221 210.021 74.9622V4.99748C210.021 2.23764 207.786 0 205.024 0H95.079C92.3192 0 90.0815 2.23764 90.0815 4.99748V74.9622C90.0815 77.7221 92.3192 79.9597 95.079 79.9597ZM100.077 69.9648V59.9698C105.599 59.9698 110.071 64.4451 110.071 69.9648H100.077ZM200.026 69.9648H190.031C190.031 64.4451 194.507 59.9698 200.026 59.9698V69.9648ZM200.026 9.99497V19.9899C194.507 19.9899 190.031 15.5146 190.031 9.99497H200.026ZM100.077 9.99497H110.071C110.071 15.5146 105.599 19.9899 100.077 19.9899V9.99497ZM120.066 9.99497H180.036C180.036 21.0343 188.987 29.9849 200.026 29.9849V49.9748C188.987 49.9748 180.036 58.9254 180.036 69.9648H120.066C120.066 58.9254 111.118 49.9748 100.077 49.9748V29.9849C111.118 29.9849 120.066 21.0343 120.066 9.99497Z" fill="#3B8686"/>
<path d="M190.031 39.9799C190.031 42.7397 187.796 44.9774 185.034 44.9774C182.274 44.9774 180.036 42.7397 180.036 39.9799C180.036 37.2201 182.274 34.9824 185.034 34.9824C187.796 34.9824 190.031 37.2201 190.031 39.9799Z" fill="#3B8686"/>
<path d="M120.066 39.9799C120.066 42.7397 117.831 44.9774 115.069 44.9774C112.309 44.9774 110.071 42.7397 110.071 39.9799C110.071 37.2201 112.309 34.9824 115.069 34.9824C117.831 34.9824 120.066 37.2201 120.066 39.9799Z" fill="#3B8686"/>
<path d="M299.127 32.2348L279.137 2.24986C278.209 0.866283 276.655 0.0390625 274.988 0.0390625C273.324 0.0390625 271.77 0.866283 270.843 2.24986L250.853 32.2348C250.306 33.0473 250.011 34.0039 250.001 34.9824V54.9723C250.001 57.7322 252.239 59.9698 254.998 59.9698C257.761 59.9698 259.996 57.7322 259.996 54.9723V36.4807L274.988 13.992L289.981 36.4807V89.9547C289.981 92.7146 292.218 94.9522 294.978 94.9522C297.741 94.9522 299.976 92.7146 299.976 89.9547V34.9824C299.968 34.0039 299.673 33.0473 299.127 32.2348Z" fill="#3B8686"/>
<path d="M279.986 69.9648V39.9799C279.986 37.2201 277.75 34.9824 274.988 34.9824C272.228 34.9824 269.991 37.2201 269.991 39.9799V69.9648C269.991 72.7246 272.228 74.9623 274.988 74.9623C277.75 74.9623 279.986 72.7246 279.986 69.9648Z" fill="#3B8686"/>
<path d="M5.12424 44.9779H10.1217V104.948C10.1217 107.708 12.3594 109.945 15.1192 109.945C17.8815 109.945 20.1167 107.708 20.1167 104.948V39.9804C20.1167 37.2205 17.8815 34.9829 15.1192 34.9829H14.8215L30.1117 13.5947L45.4043 34.9829H45.1041C42.3443 34.9829 40.1066 37.2205 40.1066 39.9804V49.9753C40.1066 52.7352 42.3443 54.9728 45.1041 54.9728C47.8664 54.9728 50.1016 52.7352 50.1016 49.9753V44.9779H55.0991C56.9658 44.9681 58.6739 43.9213 59.5256 42.2595C60.3747 40.6002 60.2308 38.6017 59.1473 37.0814L34.1599 2.09906C33.2204 0.800883 31.7149 0.0322266 30.1117 0.0322266C28.5109 0.0322266 27.0053 0.800883 26.0658 2.09906L1.07843 37.0814C-0.00501351 38.6017 -0.148984 40.6002 0.700198 42.2595C1.55182 43.9213 3.25994 44.9681 5.12424 44.9779Z" fill="#3B8686"/>
<path d="M5.12424 44.9779H10.1217V104.948C10.1217 107.708 12.3594 109.945 15.1192 109.945C17.8815 109.945 20.1167 107.708 20.1167 104.948V39.9804C20.1167 37.2205 17.8815 34.9829 15.1192 34.9829H14.8215L30.1117 13.5947L45.4043 34.9829H45.1041C42.3443 34.9829 40.1066 37.2205 40.1066 39.9804V49.9753C40.1066 52.7352 42.3443 54.9728 45.1041 54.9728C47.8664 54.9728 50.1016 52.7352 50.1016 49.9753V44.9779H55.0991C56.9658 44.9681 58.6739 43.9213 59.5256 42.2595C60.3747 40.6002 60.2308 38.6017 59.1473 37.0814L34.1599 2.09906C33.2204 0.800883 31.7149 0.0322266 30.1117 0.0322266C28.5109 0.0322266 27.0053 0.800883 26.0658 2.09906L1.07843 37.0814C-0.00501351 38.6017 -0.148984 40.6002 0.700198 42.2595C1.55182 43.9213 3.25994 44.9681 5.12424 44.9779Z" fill="#3B8686"/>
<path d="M30.1118 69.9643V84.9567C30.1118 87.7166 32.3495 89.9542 35.1093 89.9542C37.8716 89.9542 40.1068 87.7166 40.1068 84.9567V69.9643C40.1068 67.2044 37.8716 64.9668 35.1093 64.9668C32.3495 64.9668 30.1118 67.2044 30.1118 69.9643Z" fill="#3B8686"/>
</g>
<defs>
<clipPath id="clip0">
<rect width="300" height="300" fill="white"/>
</clipPath>
</defs>
</svg>
