<svg width="38" height="30" viewBox="0 0 38 30" fill="none" xmlns="http://www.w3.org/2000/svg">
<mask id="path-1-inside-1" fill="white">
<path fill-rule="evenodd" clip-rule="evenodd" d="M33.75 0H3.75C1.66875 0 0.01875 1.66875 0.01875 3.75L0 26.25C0 28.3312 1.66875 30 3.75 30H33.75C35.8312 30 37.5 28.3312 37.5 26.25V3.75C37.5 1.66875 35.8312 0 33.75 0ZM16.875 24.375H20.625V22.5H22.5C23.5312 22.5 24.375 21.6562 24.375 20.625V15C24.375 13.9688 23.5312 13.125 22.5 13.125H16.875V11.25H24.375V7.5H20.625V5.625H16.875V7.5H15C13.9688 7.5 13.125 8.34375 13.125 9.375V15C13.125 16.0312 13.9688 16.875 15 16.875H20.625V18.75H13.125V22.5H16.875V24.375ZM3.75 26.25H33.75V3.75H3.75V26.25Z"/>
</mask>
<path fill-rule="evenodd" clip-rule="evenodd" d="M33.75 0H3.75C1.66875 0 0.01875 1.66875 0.01875 3.75L0 26.25C0 28.3312 1.66875 30 3.75 30H33.75C35.8312 30 37.5 28.3312 37.5 26.25V3.75C37.5 1.66875 35.8312 0 33.75 0ZM16.875 24.375H20.625V22.5H22.5C23.5312 22.5 24.375 21.6562 24.375 20.625V15C24.375 13.9688 23.5312 13.125 22.5 13.125H16.875V11.25H24.375V7.5H20.625V5.625H16.875V7.5H15C13.9688 7.5 13.125 8.34375 13.125 9.375V15C13.125 16.0312 13.9688 16.875 15 16.875H20.625V18.75H13.125V22.5H16.875V24.375ZM3.75 26.25H33.75V3.75H3.75V26.25Z" fill="#569F56"/>
<path d="M0.01875 3.75L0.71875 3.75058V3.75H0.01875ZM0 26.25L-0.7 26.2494V26.25H0ZM20.625 24.375V25.075H21.325V24.375H20.625ZM16.875 24.375H16.175V25.075H16.875V24.375ZM20.625 22.5V21.8H19.925V22.5H20.625ZM16.875 13.125H16.175V13.825H16.875V13.125ZM16.875 11.25V10.55H16.175V11.25H16.875ZM24.375 11.25V11.95H25.075V11.25H24.375ZM24.375 7.5H25.075V6.8H24.375V7.5ZM20.625 7.5H19.925V8.2H20.625V7.5ZM20.625 5.625H21.325V4.925H20.625V5.625ZM16.875 5.625V4.925H16.175V5.625H16.875ZM16.875 7.5V8.2H17.575V7.5H16.875ZM20.625 16.875H21.325V16.175H20.625V16.875ZM20.625 18.75V19.45H21.325V18.75H20.625ZM13.125 18.75V18.05H12.425V18.75H13.125ZM13.125 22.5H12.425V23.2H13.125V22.5ZM16.875 22.5H17.575V21.8H16.875V22.5ZM33.75 26.25V26.95H34.45V26.25H33.75ZM3.75 26.25H3.05V26.95H3.75V26.25ZM33.75 3.75H34.45V3.05H33.75V3.75ZM3.75 3.75V3.05H3.05V3.75H3.75ZM3.75 0.7H33.75V-0.7H3.75V0.7ZM0.71875 3.75C0.71875 2.05076 2.05992 0.7 3.75 0.7V-0.7C1.27758 -0.7 -0.68125 1.28674 -0.68125 3.75H0.71875ZM0.7 26.2506L0.71875 3.75058L-0.68125 3.74942L-0.7 26.2494L0.7 26.2506ZM3.75 29.3C2.05535 29.3 0.7 27.9447 0.7 26.25H-0.7C-0.7 28.7178 1.28215 30.7 3.75 30.7V29.3ZM33.75 29.3H3.75V30.7H33.75V29.3ZM36.8 26.25C36.8 27.9447 35.4446 29.3 33.75 29.3V30.7C36.2178 30.7 38.2 28.7178 38.2 26.25H36.8ZM36.8 3.75V26.25H38.2V3.75H36.8ZM33.75 0.7C35.4446 0.7 36.8 2.05535 36.8 3.75H38.2C38.2 1.28215 36.2178 -0.7 33.75 -0.7V0.7ZM20.625 23.675H16.875V25.075H20.625V23.675ZM19.925 22.5V24.375H21.325V22.5H19.925ZM22.5 21.8H20.625V23.2H22.5V21.8ZM23.675 20.625C23.675 21.2697 23.1447 21.8 22.5 21.8V23.2C23.9178 23.2 25.075 22.0428 25.075 20.625H23.675ZM23.675 15V20.625H25.075V15H23.675ZM22.5 13.825C23.1447 13.825 23.675 14.3553 23.675 15H25.075C25.075 13.5822 23.9178 12.425 22.5 12.425V13.825ZM16.875 13.825H22.5V12.425H16.875V13.825ZM16.175 11.25V13.125H17.575V11.25H16.175ZM24.375 10.55H16.875V11.95H24.375V10.55ZM23.675 7.5V11.25H25.075V7.5H23.675ZM20.625 8.2H24.375V6.8H20.625V8.2ZM19.925 5.625V7.5H21.325V5.625H19.925ZM16.875 6.325H20.625V4.925H16.875V6.325ZM17.575 7.5V5.625H16.175V7.5H17.575ZM15 8.2H16.875V6.8H15V8.2ZM13.825 9.375C13.825 8.73035 14.3553 8.2 15 8.2V6.8C13.5822 6.8 12.425 7.95715 12.425 9.375H13.825ZM13.825 15V9.375H12.425V15H13.825ZM15 16.175C14.3553 16.175 13.825 15.6447 13.825 15H12.425C12.425 16.4178 13.5822 17.575 15 17.575V16.175ZM20.625 16.175H15V17.575H20.625V16.175ZM21.325 18.75V16.875H19.925V18.75H21.325ZM13.125 19.45H20.625V18.05H13.125V19.45ZM13.825 22.5V18.75H12.425V22.5H13.825ZM16.875 21.8H13.125V23.2H16.875V21.8ZM17.575 24.375V22.5H16.175V24.375H17.575ZM33.75 25.55H3.75V26.95H33.75V25.55ZM33.05 3.75V26.25H34.45V3.75H33.05ZM3.75 4.45H33.75V3.05H3.75V4.45ZM4.45 26.25V3.75H3.05V26.25H4.45Z" fill="white" mask="url(#path-1-inside-1)"/>
</svg>
