<svg width="45" height="45" viewBox="0 0 45 45" fill="none" xmlns="http://www.w3.org/2000/svg">
<mask id="path-3-inside-1" fill="white">
<path fill-rule="evenodd" clip-rule="evenodd" d="M28.125 22.5C32.2687 22.5 35.625 19.1438 35.625 15C35.625 10.8563 32.2687 7.5 28.125 7.5C23.9813 7.5 20.625 10.8563 20.625 15C20.625 19.1438 23.9813 22.5 28.125 22.5ZM28.125 11.25C30.1875 11.25 31.875 12.9375 31.875 15C31.875 17.0625 30.1875 18.75 28.125 18.75C26.0625 18.75 24.375 17.0625 24.375 15C24.375 12.9375 26.0625 11.25 28.125 11.25ZM13.125 33.75C13.125 28.7625 23.1187 26.25 28.125 26.25C33.1312 26.25 43.125 28.7625 43.125 33.75V37.5H13.125V33.75ZM16.875 33.75C17.2875 32.4 23.0812 30 28.125 30C33.1875 30 39 32.4188 39.375 33.75H16.875ZM11.25 22.5V28.125H7.5V22.5H1.875V18.75H7.5V13.125H11.25V18.75H16.875V22.5H11.25Z"/>
</mask>
<path fill-rule="evenodd" clip-rule="evenodd" d="M28.125 22.5C32.2687 22.5 35.625 19.1438 35.625 15C35.625 10.8563 32.2687 7.5 28.125 7.5C23.9813 7.5 20.625 10.8563 20.625 15C20.625 19.1438 23.9813 22.5 28.125 22.5ZM28.125 11.25C30.1875 11.25 31.875 12.9375 31.875 15C31.875 17.0625 30.1875 18.75 28.125 18.75C26.0625 18.75 24.375 17.0625 24.375 15C24.375 12.9375 26.0625 11.25 28.125 11.25ZM13.125 33.75C13.125 28.7625 23.1187 26.25 28.125 26.25C33.1312 26.25 43.125 28.7625 43.125 33.75V37.5H13.125V33.75ZM16.875 33.75C17.2875 32.4 23.0812 30 28.125 30C33.1875 30 39 32.4188 39.375 33.75H16.875ZM11.25 22.5V28.125H7.5V22.5H1.875V18.75H7.5V13.125H11.25V18.75H16.875V22.5H11.25Z" fill="#569F56"/>
<path d="M43.125 37.5V38.2H43.825V37.5H43.125ZM13.125 37.5H12.425V38.2H13.125V37.5ZM16.875 33.75L16.2056 33.5454L15.9292 34.45H16.875V33.75ZM39.375 33.75V34.45H40.2994L40.0488 33.5602L39.375 33.75ZM11.25 28.125V28.825H11.95V28.125H11.25ZM11.25 22.5V21.8H10.55V22.5H11.25ZM7.5 28.125H6.8V28.825H7.5V28.125ZM7.5 22.5H8.2V21.8H7.5V22.5ZM1.875 22.5H1.175V23.2H1.875V22.5ZM1.875 18.75V18.05H1.175V18.75H1.875ZM7.5 18.75V19.45H8.2V18.75H7.5ZM7.5 13.125V12.425H6.8V13.125H7.5ZM11.25 13.125H11.95V12.425H11.25V13.125ZM11.25 18.75H10.55V19.45H11.25V18.75ZM16.875 18.75H17.575V18.05H16.875V18.75ZM16.875 22.5V23.2H17.575V22.5H16.875ZM34.925 15C34.925 18.7572 31.8822 21.8 28.125 21.8V23.2C32.6553 23.2 36.325 19.5304 36.325 15H34.925ZM28.125 8.2C31.8822 8.2 34.925 11.2428 34.925 15H36.325C36.325 10.4697 32.6553 6.8 28.125 6.8V8.2ZM21.325 15C21.325 11.2428 24.3678 8.2 28.125 8.2V6.8C23.5947 6.8 19.925 10.4697 19.925 15H21.325ZM28.125 21.8C24.3678 21.8 21.325 18.7572 21.325 15H19.925C19.925 19.5304 23.5947 23.2 28.125 23.2V21.8ZM32.575 15C32.575 12.5509 30.5741 10.55 28.125 10.55V11.95C29.8009 11.95 31.175 13.3241 31.175 15H32.575ZM28.125 19.45C30.5741 19.45 32.575 17.4491 32.575 15H31.175C31.175 16.6759 29.8009 18.05 28.125 18.05V19.45ZM23.675 15C23.675 17.4491 25.6759 19.45 28.125 19.45V18.05C26.4491 18.05 25.075 16.6759 25.075 15H23.675ZM28.125 10.55C25.6759 10.55 23.675 12.5509 23.675 15H25.075C25.075 13.3241 26.4491 11.95 28.125 11.95V10.55ZM28.125 25.55C25.5344 25.55 21.6959 26.1945 18.4873 27.4799C16.8825 28.1228 15.3913 28.9432 14.29 29.9596C13.184 30.9804 12.425 32.246 12.425 33.75H13.825C13.825 32.7602 14.3153 31.8414 15.2395 30.9884C16.1685 30.131 17.4886 29.3881 19.008 28.7795C22.0479 27.5617 25.7094 26.95 28.125 26.95V25.55ZM43.825 33.75C43.825 32.246 43.066 30.9804 41.96 29.9596C40.8587 28.9432 39.3675 28.1228 37.7626 27.4799C34.5541 26.1945 30.7156 25.55 28.125 25.55V26.95C30.5406 26.95 34.2021 27.5617 37.242 28.7795C38.7614 29.3881 40.0815 30.131 41.0105 30.9884C41.9347 31.8414 42.425 32.7602 42.425 33.75H43.825ZM43.825 37.5V33.75H42.425V37.5H43.825ZM13.125 38.2H43.125V36.8H13.125V38.2ZM12.425 33.75V37.5H13.825V33.75H12.425ZM28.125 29.3C25.5043 29.3 22.7136 29.9208 20.5257 30.7103C19.4307 31.1054 18.4645 31.5507 17.733 31.997C17.368 32.2196 17.0453 32.4523 16.7911 32.6907C16.549 32.9177 16.3098 33.2044 16.2056 33.5454L17.5444 33.9546C17.5434 33.9581 17.5754 33.8745 17.7488 33.7119C17.9101 33.5606 18.1471 33.3843 18.4621 33.1921C19.0906 32.8087 19.9654 32.4008 21.0009 32.0272C23.0739 31.2792 25.7019 30.7 28.125 30.7V29.3ZM40.0488 33.5602C39.951 33.2132 39.7113 32.9237 39.4725 32.698C39.2207 32.4599 38.8995 32.2276 38.5362 32.0053C37.8077 31.5597 36.8419 31.1137 35.7458 30.7175C33.5557 29.9257 30.7554 29.3 28.125 29.3V30.7C30.5571 30.7 33.1943 31.2837 35.2698 32.0341C36.3066 32.4089 37.1806 32.8173 37.8056 33.1996C38.119 33.3913 38.3531 33.5663 38.5107 33.7153C38.6813 33.8767 38.7052 33.954 38.7012 33.9398L40.0488 33.5602ZM16.875 34.45H39.375V33.05H16.875V34.45ZM11.95 28.125V22.5H10.55V28.125H11.95ZM7.5 28.825H11.25V27.425H7.5V28.825ZM6.8 22.5V28.125H8.2V22.5H6.8ZM1.875 23.2H7.5V21.8H1.875V23.2ZM1.175 18.75V22.5H2.575V18.75H1.175ZM7.5 18.05H1.875V19.45H7.5V18.05ZM6.8 13.125V18.75H8.2V13.125H6.8ZM11.25 12.425H7.5V13.825H11.25V12.425ZM11.95 18.75V13.125H10.55V18.75H11.95ZM16.875 18.05H11.25V19.45H16.875V18.05ZM17.575 22.5V18.75H16.175V22.5H17.575ZM11.25 23.2H16.875V21.8H11.25V23.2Z" fill="white" mask="url(#path-3-inside-1)"/>
<path d="M0 0V-1H-1V0H0ZM45 0H46V-1H45V0ZM45 45V46H46V45H45ZM0 45H-1V46H0V45ZM0 1H45V-1H0V1ZM44 0V45H46V0H44ZM45 44H0V46H45V44ZM1 45V0H-1V45H1Z" fill="white"/>
</svg>
