<svg width="45" height="45" viewBox="0 0 45 45" fill="none" xmlns="http://www.w3.org/2000/svg">
<g id="icon/notification/sync_24px">
<g id="icon/notification/sync_24px_2">
<mask id="path-1-inside-1" fill="white">
<path fill-rule="evenodd" clip-rule="evenodd" d="M22.5 1.875V7.5C30.7875 7.5 37.5 14.2125 37.5 22.5C37.5 25.4438 36.6375 28.1812 35.175 30.4875L32.4375 27.75C33.2812 26.1938 33.75 24.3937 33.75 22.5C33.75 16.2937 28.7062 11.25 22.5 11.25V16.875L15 9.375L22.5 1.875ZM11.25 22.5C11.25 28.7062 16.2937 33.75 22.5 33.75V28.125L30 35.625L22.5 43.125V37.5C14.2125 37.5 7.5 30.7875 7.5 22.5C7.5 19.5562 8.3625 16.8187 9.825 14.5125L12.5625 17.25C11.7188 18.8062 11.25 20.6062 11.25 22.5Z"/>
</mask>
<path fill-rule="evenodd" clip-rule="evenodd" d="M22.5 1.875V7.5C30.7875 7.5 37.5 14.2125 37.5 22.5C37.5 25.4438 36.6375 28.1812 35.175 30.4875L32.4375 27.75C33.2812 26.1938 33.75 24.3937 33.75 22.5C33.75 16.2937 28.7062 11.25 22.5 11.25V16.875L15 9.375L22.5 1.875ZM11.25 22.5C11.25 28.7062 16.2937 33.75 22.5 33.75V28.125L30 35.625L22.5 43.125V37.5C14.2125 37.5 7.5 30.7875 7.5 22.5C7.5 19.5562 8.3625 16.8187 9.825 14.5125L12.5625 17.25C11.7188 18.8062 11.25 20.6062 11.25 22.5Z" fill="#569F56"/>
<path d="M22.5 7.5H21.8V8.2H22.5V7.5ZM22.5 1.875H23.2V0.18505L22.005 1.38003L22.5 1.875ZM35.175 30.4875L34.68 30.9825L35.2981 31.6005L35.7662 30.8624L35.175 30.4875ZM32.4375 27.75L31.8221 27.4164L31.5731 27.8756L31.9425 28.245L32.4375 27.75ZM22.5 11.25V10.55H21.8V11.25H22.5ZM22.5 16.875L22.005 17.37L23.2 18.5649V16.875H22.5ZM15 9.375L14.505 8.88003L14.0101 9.375L14.505 9.86997L15 9.375ZM22.5 33.75V34.45H23.2V33.75H22.5ZM22.5 28.125L22.995 27.63L21.8 26.435V28.125H22.5ZM30 35.625L30.495 36.12L30.99 35.625L30.495 35.13L30 35.625ZM22.5 43.125H21.8V44.8149L22.995 43.62L22.5 43.125ZM22.5 37.5H23.2V36.8H22.5V37.5ZM9.825 14.5125L10.32 14.0175L9.70193 13.3995L9.23384 14.1376L9.825 14.5125ZM12.5625 17.25L13.1779 17.5836L13.4269 17.1244L13.0575 16.755L12.5625 17.25ZM23.2 7.5V1.875H21.8V7.5H23.2ZM38.2 22.5C38.2 13.8259 31.1741 6.8 22.5 6.8V8.2C30.4009 8.2 36.8 14.5991 36.8 22.5H38.2ZM35.7662 30.8624C37.2964 28.4493 38.2 25.5826 38.2 22.5H36.8C36.8 25.3049 35.9786 27.9132 34.5838 30.1126L35.7662 30.8624ZM31.9425 28.245L34.68 30.9825L35.67 29.9925L32.9325 27.255L31.9425 28.245ZM33.05 22.5C33.05 24.2781 32.6099 25.9633 31.8221 27.4164L33.0529 28.0836C33.9526 26.4242 34.45 24.5094 34.45 22.5H33.05ZM22.5 11.95C28.3197 11.95 33.05 16.6803 33.05 22.5H34.45C34.45 15.9072 29.0928 10.55 22.5 10.55V11.95ZM23.2 16.875V11.25H21.8V16.875H23.2ZM14.505 9.86997L22.005 17.37L22.995 16.38L15.495 8.88003L14.505 9.86997ZM22.005 1.38003L14.505 8.88003L15.495 9.86997L22.995 2.36997L22.005 1.38003ZM22.5 33.05C16.6803 33.05 11.95 28.3196 11.95 22.5H10.55C10.55 29.0928 15.9072 34.45 22.5 34.45V33.05ZM21.8 28.125V33.75H23.2V28.125H21.8ZM30.495 35.13L22.995 27.63L22.005 28.62L29.505 36.12L30.495 35.13ZM22.995 43.62L30.495 36.12L29.505 35.13L22.005 42.63L22.995 43.62ZM21.8 37.5V43.125H23.2V37.5H21.8ZM6.8 22.5C6.8 31.1741 13.8259 38.2 22.5 38.2V36.8C14.5991 36.8 8.2 30.4009 8.2 22.5H6.8ZM9.23384 14.1376C7.70357 16.5507 6.8 19.4174 6.8 22.5H8.2C8.2 19.6951 9.02143 17.0867 10.4162 14.8874L9.23384 14.1376ZM13.0575 16.755L10.32 14.0175L9.33003 15.0075L12.0675 17.745L13.0575 16.755ZM11.95 22.5C11.95 20.7219 12.3901 19.0367 13.1779 17.5836L11.9471 16.9164C11.0474 18.5758 10.55 20.4906 10.55 22.5H11.95Z" fill="white" mask="url(#path-1-inside-1)"/>
</g>
</g>
</svg>
