<svg width="200" height="200" viewBox="0 0 200 200" fill="none" xmlns="http://www.w3.org/2000/svg">
<path d="M175 161.875C169.656 163.781 163.344 165.469 156.25 166.875C150.469 168.031 144.188 169 137.5 169.781C131.562 170.469 125.281 171.031 118.75 171.375C112.688 171.688 106.438 171.875 100 171.875C93.5625 171.875 87.3125 171.688 81.25 171.375C74.7188 171.031 68.4375 170.469 62.5 169.781C55.8125 169 49.5312 168.031 43.75 166.875C36.6562 165.469 30.3438 163.781 25 161.875C13.2188 157.687 6.25 152.5 6.25 146.875V165.625C6.25 171.25 13.2188 176.437 25 180.625C30.3438 182.531 36.6562 184.219 43.75 185.625C49.5312 186.781 55.8125 187.75 62.5 188.531C68.4375 189.219 74.7188 189.781 81.25 190.125C87.3125 190.438 93.5625 190.625 100 190.625C106.438 190.625 112.688 190.438 118.75 190.125C125.281 189.781 131.562 189.219 137.5 188.531C144.188 187.75 150.469 186.781 156.25 185.625C163.344 184.219 169.656 182.531 175 180.625C186.781 176.437 193.75 171.25 193.75 165.625V146.875C193.75 152.5 186.781 157.687 175 161.875Z" fill="#79BD9A"/>
<path d="M179.906 77C176.969 75.4062 175 72.3125 175 68.75C175 63.5625 179.188 59.375 184.375 59.375C189.562 59.375 193.75 63.5625 193.75 68.75C193.75 73.9375 189.562 78.125 184.375 78.125C182.75 78.125 181.219 77.7187 179.906 77Z" fill="#3B8686"/>
<path d="M190.625 21.875L171.875 34.375V28.125H150V15.625H171.875V9.375L190.625 21.875Z" fill="#B3E06F"/>
<path d="M193.75 146.875C193.75 152.5 186.781 157.687 175 161.875C169.656 163.781 163.344 165.469 156.25 166.875C150.469 168.031 144.188 169 137.5 169.781C131.562 170.469 125.281 171.031 118.75 171.375C112.688 171.688 106.438 171.875 100 171.875C93.5625 171.875 87.3125 171.688 81.25 171.375C74.7188 171.031 68.4375 170.469 62.5 169.781C55.8125 169 49.5312 168.031 43.75 166.875C36.6562 165.469 30.3438 163.781 25 161.875C13.2188 157.687 6.25 152.5 6.25 146.875C6.25 133.062 48.2188 121.875 100 121.875C103.719 121.875 107.375 121.937 110.969 122.031C157.594 123.5 193.75 134.062 193.75 146.875Z" fill="#A8DBA8"/>
<path d="M165.469 103.875C167.406 104.938 168.75 107 168.75 109.375C168.75 112.812 165.938 115.625 162.5 115.625C159.062 115.625 156.25 112.812 156.25 109.375C156.25 108.812 156.312 108.25 156.469 107.75C157.187 105.094 159.625 103.125 162.5 103.125C163.562 103.125 164.594 103.406 165.469 103.875Z" fill="#3B8686"/>
<path d="M100 159.375C132.792 159.375 159.375 153.779 159.375 146.875C159.375 139.971 132.792 134.375 100 134.375C67.2081 134.375 40.625 139.971 40.625 146.875C40.625 153.779 67.2081 159.375 100 159.375Z" fill="#A8DBA8"/>
<path d="M140.625 25V75C140.625 78.4375 137.812 81.25 134.375 81.25H109.375L103.875 103.219C103.438 105 101.844 106.25 100 106.25C98.1562 106.25 96.5625 105 96.125 103.219L90.625 81.25H65.625C62.1875 81.25 59.375 78.4375 59.375 75V25C59.375 21.5625 62.1875 18.75 65.625 18.75H134.375C137.812 18.75 140.625 21.5625 140.625 25Z" fill="white"/>
<path d="M134.156 101.625C133.438 104.281 131 106.25 128.125 106.25C126.688 106.25 125.375 105.781 124.312 104.938C122.844 103.813 121.875 102 121.875 100C121.875 96.5625 124.688 93.75 128.125 93.75C131.562 93.75 134.375 96.5625 134.375 100C134.375 100.562 134.313 101.125 134.156 101.625Z" fill="#3B8686"/>
<path d="M50 71.875V84.375H28.125V90.625L9.375 78.125L28.125 65.625V71.875H50Z" fill="#B3E06F"/>
<path d="M100 131.25C76.7844 131.25 37.5 134.541 37.5 146.875C37.5 159.209 76.7844 162.5 100 162.5C123.216 162.5 162.5 159.209 162.5 146.875C162.5 134.541 123.216 131.25 100 131.25ZM100 156.25C65.2312 156.25 44.8906 150.081 43.7375 146.975C44.8906 143.669 65.2312 137.5 100 137.5C134.419 137.5 154.697 143.547 156.222 146.875C154.697 150.203 134.419 156.25 100 156.25Z" fill="#3B8686"/>
<path d="M117.162 119.188L125.194 108.859C126.122 109.169 127.094 109.375 128.125 109.375C131.309 109.375 134.122 107.772 135.816 105.338L153.197 110.078C153.562 114.912 157.569 118.75 162.5 118.75C167.669 118.75 171.875 114.544 171.875 109.375C171.875 106.959 170.931 104.775 169.425 103.109L181.406 80.8531C182.363 81.0906 183.347 81.25 184.375 81.25C191.269 81.25 196.875 75.6438 196.875 68.75C196.875 61.8562 191.269 56.25 184.375 56.25C177.481 56.25 171.875 61.8562 171.875 68.75C171.875 72.3687 173.444 75.6031 175.906 77.8875L163.922 100.144C163.456 100.072 162.988 100 162.5 100C159.316 100 156.506 101.603 154.809 104.037L137.428 99.2969C137.062 94.4625 133.053 90.625 128.125 90.625C122.956 90.625 118.75 94.8312 118.75 100C118.75 101.859 119.309 103.581 120.247 105.041L109.478 118.884C106.316 118.797 103.153 118.75 100 118.75C53.0375 118.75 3.125 128.606 3.125 146.875V165.625C3.125 183.894 53.0375 193.75 100 193.75C146.962 193.75 196.875 183.894 196.875 165.625V146.875C196.875 130.828 158.359 121.272 117.162 119.188ZM184.375 62.5C187.822 62.5 190.625 65.3031 190.625 68.75C190.625 72.1969 187.822 75 184.375 75C180.928 75 178.125 72.1969 178.125 68.75C178.125 65.3031 180.928 62.5 184.375 62.5ZM162.5 106.25C164.225 106.25 165.625 107.65 165.625 109.375C165.625 111.1 164.225 112.5 162.5 112.5C160.775 112.5 159.375 111.1 159.375 109.375C159.375 107.65 160.775 106.25 162.5 106.25ZM128.125 96.875C129.85 96.875 131.25 98.275 131.25 100C131.25 101.725 129.85 103.125 128.125 103.125C126.4 103.125 125 101.725 125 100C125 98.275 126.4 96.875 128.125 96.875ZM9.375 165.625V157.344C12.5344 159.803 16.7812 162.019 21.875 163.978V175.988C13.7469 172.569 9.375 168.869 9.375 165.625ZM171.875 166.131V178.322C168.206 179.534 164.022 180.678 159.375 181.728V169.353C163.831 168.4 168.019 167.322 171.875 166.131ZM153.125 183.028C149.231 183.766 145.053 184.428 140.625 185.009V172.5C144.928 171.95 149.109 171.309 153.125 170.584V183.028ZM134.375 185.756C130.394 186.181 126.219 186.534 121.875 186.812V174.291C126.1 174.016 130.278 173.659 134.375 173.231V185.756ZM115.625 187.156C111.597 187.334 107.422 187.441 103.125 187.478V174.981C107.291 174.944 111.469 174.825 115.625 174.634V187.156ZM96.875 187.478C92.5781 187.441 88.4031 187.334 84.375 187.156V174.631C88.5312 174.822 92.7094 174.941 96.875 174.978V187.478ZM78.125 186.812C73.7812 186.534 69.6062 186.181 65.625 185.756V173.231C69.7219 173.662 73.9 174.019 78.125 174.291V186.812ZM59.375 185.009C54.9469 184.428 50.7687 183.766 46.875 183.028V170.584C50.8906 171.313 55.0719 171.95 59.375 172.5V185.009ZM40.625 181.731C35.9781 180.681 31.7938 179.534 28.125 178.325V166.134C31.9813 167.325 36.1688 168.403 40.625 169.359V181.731ZM178.125 175.991V163.981C183.219 162.022 187.466 159.806 190.625 157.347V165.625C190.625 168.869 186.253 172.569 178.125 175.991ZM100 168.75C43.85 168.75 9.375 156.009 9.375 146.875C9.375 137.741 43.85 125 100 125C156.15 125 190.625 137.741 190.625 146.875C190.625 156.009 156.15 168.75 100 168.75Z" fill="#3B8686"/>
<path d="M96.875 71.875H103.125V65.625C108.294 65.625 112.5 61.4188 112.5 56.25C112.5 51.0812 108.294 46.875 103.125 46.875H96.875C95.15 46.875 93.75 45.475 93.75 43.75C93.75 42.025 95.15 40.625 96.875 40.625H106.25V43.75H112.5V34.375H103.125V28.125H96.875V34.375C91.7062 34.375 87.5 38.5813 87.5 43.75C87.5 48.9188 91.7062 53.125 96.875 53.125H103.125C104.85 53.125 106.25 54.525 106.25 56.25C106.25 57.975 104.85 59.375 103.125 59.375H93.75V56.25H87.5V65.625H96.875V71.875Z" fill="#3B8686"/>
<path d="M65.625 84.375H88.1875L93.0875 103.978C93.8812 107.156 96.725 109.375 100 109.375C103.275 109.375 106.119 107.156 106.913 103.975L111.812 84.375H134.375C139.544 84.375 143.75 80.1687 143.75 75V25C143.75 19.8312 139.544 15.625 134.375 15.625H65.625C60.4562 15.625 56.25 19.8312 56.25 25V75C56.25 80.1687 60.4562 84.375 65.625 84.375ZM62.5 25C62.5 23.275 63.9 21.875 65.625 21.875H134.375C136.1 21.875 137.5 23.275 137.5 25V75C137.5 76.725 136.1 78.125 134.375 78.125H106.938L100.853 102.459C100.656 103.241 99.3469 103.237 99.15 102.462L93.0625 78.125H65.625C63.9 78.125 62.5 76.725 62.5 75V25Z" fill="#3B8686"/>
<path d="M31.25 87.4996H50V81.2496H25V84.7871L15.0094 78.1246L25 71.4621V74.9996H50V68.7496H31.25V59.7871L3.74063 78.1246L31.25 96.4621V87.4996Z" fill="#3B8686"/>
<path d="M168.75 40.2121L196.259 21.8746L168.75 3.53711V12.4996H150V18.7496H175V15.2121L184.991 21.8746L175 28.5371V24.9996H150V31.2496H168.75V40.2121Z" fill="#3B8686"/>
</svg>
