<svg width="115" height="115" viewBox="0 0 115 115" fill="none" xmlns="http://www.w3.org/2000/svg">
<g clip-path="url(#clip0)">
<path d="M105.726 42.6609C105.726 11.5431 70.8929 -11.4401 38.0905 10.5767C36.0038 11.9769 34.2025 13.7873 32.8041 15.8758C16.7448 39.8624 24.711 64.887 42.3064 76.6208C48.4532 80.7199 51.9364 87.8049 51.9364 95.1943V102.015H77.9037V94.9425C77.9037 87.6627 81.3724 80.7045 87.4395 76.6815C98.4588 69.3773 105.726 56.8709 105.726 42.6609V42.6609Z" fill="#FFE3C2"/>
<path d="M29.6788 20.4036C29.6788 15.282 25.5263 11.1295 20.4048 11.1295C25.5263 11.1295 29.6788 6.97612 29.6788 1.85547C29.6788 6.97612 33.8313 11.1295 38.9529 11.1295C33.8313 11.1295 29.6788 15.282 29.6788 20.4036Z" fill="#79BD9A"/>
<path d="M18.5499 38.9524C18.5499 33.8308 14.3974 29.6784 9.27585 29.6784C14.3974 29.6784 18.5499 25.525 18.5499 20.4043C18.5499 25.525 22.7024 29.6784 27.824 29.6784C22.7024 29.6784 18.5499 33.8308 18.5499 38.9524Z" fill="#79BD9A"/>
<path d="M55.6462 102.016V103.87C55.6462 108.991 59.7987 113.144 64.9203 113.144C70.0418 113.144 74.1943 108.991 74.1943 103.87V102.016" fill="#3B8686"/>
<path d="M62.1382 112.674C65.8904 111.486 68.6301 108.018 68.6301 103.87V102.016H55.6462V103.87C55.6462 108.016 58.3859 111.485 62.1382 112.674V112.674Z" fill="#3B8686"/>
<path d="M61.2812 16.6953C61.2812 13.6214 58.7897 11.1309 55.7168 11.1309C52.7543 11.1309 50.3561 13.4512 50.1859 16.3692C49.1878 15.4283 47.852 14.8405 46.3721 14.8405C43.2983 14.8405 40.8077 17.3311 40.8077 20.4049C40.8077 21.8531 41.3755 23.1627 42.2839 24.1535C38.3651 24.3536 35.2432 27.566 35.2432 31.5338C35.2432 33.8079 36.2893 35.8185 37.8996 37.1797C37.636 37.1408 37.3725 37.0982 37.0981 37.0982C34.0242 37.0982 31.5336 39.5888 31.5336 42.6626C31.5336 45.7356 34.0242 48.2271 37.0981 48.2271C37.3725 48.2271 37.636 48.1845 37.8996 48.1455C36.2893 49.5068 35.2432 51.5174 35.2432 53.7915C35.2432 57.6886 38.2573 60.8476 42.0747 61.151C41.1564 62.1436 40.5813 63.4604 40.5813 64.9203C40.5813 67.9933 43.0728 70.4848 46.1457 70.4848C47.6944 70.4848 49.0927 69.8508 50.0998 68.8301C50.2094 71.8089 52.6411 74.1944 55.6461 74.1944C58.72 74.1944 61.2106 71.7029 61.2106 68.63L61.2812 16.6953Z" fill="#F09E9E"/>
<path d="M68.5591 16.6953C68.5591 13.6214 71.0506 11.1309 74.1235 11.1309C77.086 11.1309 79.4842 13.4512 79.6544 16.3692C80.6525 15.4283 81.9883 14.8405 83.4682 14.8405C86.5421 14.8405 89.0326 17.3311 89.0326 20.4049C89.0326 21.8531 88.4648 23.1627 87.5564 24.1535C91.4752 24.3536 94.5971 27.566 94.5971 31.5338C94.5971 33.8079 93.551 35.8185 91.9407 37.1797C92.2043 37.1408 92.4678 37.0982 92.7423 37.0982C95.8161 37.0982 98.3067 39.5888 98.3067 42.6626C98.3067 45.7356 95.8161 48.2271 92.7423 48.2271C92.4678 48.2271 92.2043 48.1845 91.9407 48.1455C93.551 49.5068 94.5971 51.5174 94.5971 53.7915C94.5971 57.6886 91.583 60.8476 87.7656 61.151C88.684 62.1436 89.2591 63.4604 89.2591 64.9203C89.2591 67.9933 86.7676 70.4848 83.6946 70.4848C82.1459 70.4848 80.7476 69.8508 79.7396 68.8301C79.6309 71.8089 77.1992 74.1944 74.1942 74.1944C71.1203 74.1944 68.6297 71.7029 68.6297 68.63L68.5591 16.6953Z" fill="#F09E9E"/>
<path d="M55.6463 76.0486C51.5544 76.0486 48.227 72.7211 48.227 68.6293H51.9366C51.9366 70.6752 53.6003 72.3389 55.6463 72.3389C57.6922 72.3389 59.3559 70.6752 59.3559 68.6293V16.6946C59.3559 14.6487 57.6922 12.985 55.6463 12.985C53.6003 12.985 51.9366 14.6487 51.9366 16.6946H48.227C48.227 12.6028 51.5544 9.27539 55.6463 9.27539C59.7381 9.27539 63.0655 12.6028 63.0655 16.6946V68.6293C63.0655 72.7211 59.7381 76.0486 55.6463 76.0486Z" fill="#20282A"/>
<path d="M46.3722 27.825C42.2803 27.825 38.9529 24.4976 38.9529 20.4057C38.9529 16.3138 42.2803 12.9863 46.3722 12.9863C50.4641 12.9863 53.7916 16.3138 53.7916 20.4057H50.0819C50.0819 18.3597 48.4181 16.696 46.3722 16.696C44.3263 16.696 42.6625 18.3597 42.6625 20.4057C42.6625 22.4516 44.3263 24.1154 46.3722 24.1154V27.825Z" fill="#20282A"/>
<path d="M42.6623 40.8079C37.5489 40.8079 33.3882 36.6472 33.3882 31.5338C33.3882 26.4204 37.5489 22.2598 42.6623 22.2598V25.9694C39.5948 25.9694 37.0978 28.4663 37.0978 31.5338C37.0978 34.6013 39.5948 37.0982 42.6623 37.0982C45.7298 37.0982 48.2267 34.6013 48.2267 31.5338H51.9363C51.9363 36.6472 47.7757 40.8079 42.6623 40.8079Z" fill="#20282A"/>
<path d="M46.3722 72.3407C42.2803 72.3407 38.9529 69.0132 38.9529 64.9213C38.9529 60.8294 42.2803 57.502 46.3722 57.502V61.2116C44.3263 61.2116 42.6625 62.8754 42.6625 64.9213C42.6625 66.9672 44.3263 68.631 46.3722 68.631C48.4181 68.631 50.0819 66.9672 50.0819 64.9213H53.7916C53.7916 69.0132 50.4641 72.3407 46.3722 72.3407Z" fill="#20282A"/>
<path d="M42.6623 63.0657C37.5489 63.0657 33.3882 58.9051 33.3882 53.7916C33.3882 48.6782 37.5489 44.5176 42.6623 44.5176C47.7757 44.5176 51.9363 48.6782 51.9363 53.7916H48.2267C48.2267 50.7241 45.7298 48.2272 42.6623 48.2272C39.5948 48.2272 37.0978 50.7241 37.0978 53.7916C37.0978 56.8591 39.5948 59.3561 42.6623 59.3561V63.0657Z" fill="#20282A"/>
<path d="M37.0981 50.0809C33.0062 50.0809 29.6787 46.7534 29.6787 42.6615C29.6787 38.5697 33.0062 35.2422 37.0981 35.2422V38.9519C35.0521 38.9519 33.3884 40.6156 33.3884 42.6615C33.3884 44.7075 35.0521 46.3712 37.0981 46.3712V50.0809Z" fill="#20282A"/>
<path d="M74.1941 76.0486C70.1023 76.0486 66.7749 72.7211 66.7749 68.6293V16.6946C66.7749 12.6028 70.1023 9.27539 74.1941 9.27539C78.2859 9.27539 81.6134 12.6028 81.6134 16.6946H77.9038C77.9038 14.6487 76.24 12.985 74.1941 12.985C72.1482 12.985 70.4845 14.6487 70.4845 16.6946V68.6293C70.4845 70.6752 72.1482 72.3389 74.1941 72.3389C76.24 72.3389 77.9038 70.6752 77.9038 68.6293H81.6134C81.6134 72.7211 78.2859 76.0486 74.1941 76.0486Z" fill="#20282A"/>
<path d="M83.4684 27.825V24.1154C85.5144 24.1154 87.1781 22.4516 87.1781 20.4057C87.1781 18.3597 85.5144 16.696 83.4684 16.696C81.4225 16.696 79.7587 18.3597 79.7587 20.4057H76.0491C76.0491 16.3138 79.3765 12.9863 83.4684 12.9863C87.5603 12.9863 90.8878 16.3138 90.8878 20.4057C90.8878 24.4976 87.5603 27.825 83.4684 27.825Z" fill="#20282A"/>
<path d="M87.1779 40.8079C82.0645 40.8079 77.9038 36.6472 77.9038 31.5338H81.6135C81.6135 34.6013 84.1104 37.0982 87.1779 37.0982C90.2454 37.0982 92.7423 34.6013 92.7423 31.5338C92.7423 28.4663 90.2454 25.9694 87.1779 25.9694V22.2598C92.2913 22.2598 96.452 26.4204 96.452 31.5338C96.452 36.6472 92.2913 40.8079 87.1779 40.8079Z" fill="#20282A"/>
<path d="M83.4684 72.3407C79.3765 72.3407 76.0491 69.0132 76.0491 64.9213H79.7587C79.7587 66.9672 81.4225 68.631 83.4684 68.631C85.5144 68.631 87.1781 66.9672 87.1781 64.9213C87.1781 62.8754 85.5144 61.2116 83.4684 61.2116V57.502C87.5603 57.502 90.8878 60.8294 90.8878 64.9213C90.8878 69.0132 87.5603 72.3407 83.4684 72.3407Z" fill="#20282A"/>
<path d="M87.1779 63.0657V59.3561C90.2454 59.3561 92.7423 56.8591 92.7423 53.7916C92.7423 50.7241 90.2454 48.2272 87.1779 48.2272C84.1104 48.2272 81.6135 50.7241 81.6135 53.7916H77.9038C77.9038 48.6782 82.0645 44.5176 87.1779 44.5176C92.2913 44.5176 96.452 48.6782 96.452 53.7916C96.452 58.9051 92.2913 63.0657 87.1779 63.0657Z" fill="#20282A"/>
<path d="M92.7424 50.0809V46.3712C94.7883 46.3712 96.4521 44.7075 96.4521 42.6615C96.4521 40.6156 94.7883 38.9519 92.7424 38.9519V35.2422C96.8343 35.2422 100.162 38.5697 100.162 42.6615C100.162 46.7534 96.8343 50.0809 92.7424 50.0809Z" fill="#20282A"/>
<path d="M77.9038 103.871H51.9365C50.9121 103.871 50.0816 103.042 50.0816 102.016V95.2592C50.0816 88.2385 46.7778 81.8399 41.2432 78.1412C28.9089 69.9005 21.8184 56.128 22.2803 41.3049L25.9872 41.4199C25.567 54.9561 32.0416 67.5295 43.3045 75.0583C49.8724 79.4454 53.7913 86.9977 53.7913 95.2592V100.162H76.049V94.9459C76.049 86.8456 79.9234 79.4417 86.4153 75.1362C97.3458 67.8935 103.871 55.754 103.871 42.6625C103.871 31.799 99.5085 21.7144 91.5866 14.2707C83.6702 6.83335 73.3093 3.11014 62.4232 3.78939L62.1932 0.0870175C74.1072 -0.660159 85.458 3.42441 94.1261 11.5682C102.677 19.6015 107.581 30.9359 107.581 42.6625C107.581 56.9984 100.434 70.2936 88.4648 78.2299C83.0136 81.8436 79.7586 88.0927 79.7586 94.9459V102.016C79.7586 103.042 78.9272 103.871 77.9038 103.871Z" fill="#20282A"/>
<path d="M22.2803 41.3049L25.9872 41.4199C26.5451 23.4512 35.8484 5.59424 62.4232 3.78939L62.1932 0.0870175C45.6167 0.0870175 22.2803 9.775 22.2803 41.3049Z" fill="#20282A"/>
<path d="M64.9201 114.999C58.7824 114.999 53.7913 110.008 53.7913 103.87V102.016H57.5009V103.87C57.5009 107.962 60.8283 111.29 64.9201 111.29C69.0119 111.29 72.3393 107.962 72.3393 103.87V102.016H76.049V103.87C76.049 110.008 71.0578 114.999 64.9201 114.999V114.999Z" fill="#20282A"/>
<path d="M46.3721 92.7422H83.4683V96.4518H46.3721V92.7422Z" fill="#20282A"/>
<path d="M42.6624 85.3242H87.1778V89.0338H42.6624V85.3242Z" fill="#20282A"/>
<path d="M29.6787 22.2597C28.6544 22.2597 27.8239 21.4301 27.8239 20.4049C27.8239 16.3131 24.4964 12.9856 20.4046 12.9856C19.3803 12.9856 18.5498 12.156 18.5498 11.1308C18.5498 10.1047 19.3803 9.276 20.4046 9.276C24.4964 9.276 27.8239 5.94858 27.8239 1.85676C27.8239 0.83064 28.6544 0.00195312 29.6787 0.00195312C30.7021 0.00195312 31.5335 0.83064 31.5335 1.85676C31.5335 5.94858 34.8609 9.276 38.9527 9.276C39.9761 9.276 40.8075 10.1047 40.8075 11.1308C40.8075 12.156 39.9761 12.9856 38.9527 12.9856C34.8609 12.9856 31.5335 16.3131 31.5335 20.4049C31.5335 21.4301 30.7021 22.2597 29.6787 22.2597ZM26.5496 11.1308C27.7885 11.9541 28.8554 13.0209 29.6787 14.2599C30.5019 13.0209 31.5688 11.9541 32.8077 11.1308C31.5688 10.3076 30.5019 9.24068 29.6787 8.00173C28.8554 9.24068 27.7885 10.3076 26.5496 11.1308Z" fill="#20282A"/>
<path d="M18.5498 40.8085C17.5255 40.8085 16.695 39.9789 16.695 38.9537C16.695 34.8619 13.3676 31.5344 9.27574 31.5344C8.25143 31.5344 7.42093 30.7049 7.42093 29.6796C7.42093 28.6535 8.25143 27.8248 9.27574 27.8248C13.3676 27.8248 16.695 24.4974 16.695 20.4056C16.695 19.3795 17.5255 18.5508 18.5498 18.5508C19.5732 18.5508 20.4046 19.3795 20.4046 20.4056C20.4046 24.4974 23.732 27.8248 27.8238 27.8248C28.8472 27.8248 29.6787 28.6535 29.6787 29.6796C29.6787 30.7049 28.8472 31.5344 27.8238 31.5344C23.732 31.5344 20.4046 34.8619 20.4046 38.9537C20.4046 39.9789 19.5732 40.8085 18.5498 40.8085ZM15.4207 29.6796C16.6597 30.5029 17.7247 31.5698 18.5498 32.8087C19.373 31.5698 20.4399 30.5047 21.6789 29.6796C20.4399 28.8564 19.3749 27.7895 18.5498 26.5506C17.7265 27.7895 16.6597 28.8564 15.4207 29.6796Z" fill="#20282A"/>
</g>
<defs>
<clipPath id="clip0">
<rect width="115" height="115" fill="white"/>
</clipPath>
</defs>
</svg>
