<svg width="300" height="300" viewBox="0 0 300 300" fill="none" xmlns="http://www.w3.org/2000/svg">
<g clip-path="url(#clip0)">
<path d="M17.1776 206.547H86.0385C91.4735 206.547 95.8758 210.952 95.8758 216.384V226.221C95.8758 231.654 91.4735 236.059 86.0385 236.059H17.1776C11.745 236.059 7.34033 231.654 7.34033 226.221V216.384C7.34033 210.952 11.745 206.547 17.1776 206.547Z" fill="#CFF09E"/>
<path d="M36.8522 236.059H105.713C111.148 236.059 115.55 240.463 115.55 245.896V255.733C115.55 261.166 111.148 265.57 105.713 265.57H36.8522C31.4196 265.57 27.0149 261.166 27.0149 255.733V245.896C27.0149 240.463 31.4196 236.059 36.8522 236.059Z" fill="#CFF09E"/>
<path d="M17.1776 265.57H86.0385C91.4735 265.57 95.8758 269.975 95.8758 275.408V285.245C95.8758 290.677 91.4735 295.082 86.0385 295.082H17.1776C11.745 295.082 7.34033 290.677 7.34033 285.245V275.408C7.34033 269.975 11.745 265.57 17.1776 265.57Z" fill="#CFF09E"/>
<path d="M71.2826 147.523H81.1199V157.361C81.1199 168.226 72.313 177.035 61.4454 177.035H51.6081V167.198C51.6081 156.33 60.4174 147.523 71.2826 147.523Z" fill="#79BD9A"/>
<path d="M51.6081 177.035H41.7708C30.9056 177.035 22.0963 168.226 22.0963 157.361V147.523H31.9335C42.8011 147.523 51.6081 156.33 51.6081 167.198V177.035Z" fill="#79BD9A"/>
<path d="M140.144 181.953H115.55V290.163H292.621V265.57V181.953H140.144Z" fill="white"/>
<path d="M189.33 265.57C162.167 265.57 140.144 243.547 140.144 216.384V181.953H115.55V290.163H292.621V265.57H189.33Z" fill="#CFF09E"/>
<path d="M223.76 236.058C223.76 249.64 212.751 260.651 199.167 260.651C185.586 260.651 174.574 249.64 174.574 236.058C174.574 222.474 185.586 211.465 199.167 211.465C212.751 211.465 223.76 222.474 223.76 236.058Z" fill="#79BD9A"/>
<path d="M263.109 181.953H292.621V211.465H282.784C271.919 211.465 263.109 202.656 263.109 191.79V181.953Z" fill="#79BD9A"/>
<path d="M282.784 260.652H292.621V290.164H263.109V280.327C263.109 269.459 271.919 260.652 282.784 260.652Z" fill="#79BD9A"/>
<path d="M115.55 181.953H145.062V191.79C145.062 202.656 136.255 211.465 125.388 211.465H115.55V181.953Z" fill="#79BD9A"/>
<path d="M115.55 260.652H125.388C136.255 260.652 145.062 269.459 145.062 280.327V290.164H115.55V260.652Z" fill="#79BD9A"/>
<path d="M135.225 162.279H292.621V181.954H135.225V162.279Z" fill="#A8DBA8"/>
<path d="M154.899 142.604H292.621V162.278H154.899V142.604Z" fill="#79BD9A"/>
<path d="M238.516 118.012V44.2324H268.028V118.012" fill="#79BD9A"/>
<path d="M179.493 118.011V63.9062H209.004V118.011" fill="#A8DBA8"/>
<path d="M120 118V84H150V118" fill="white"/>
<path d="M120.469 118.011V83.5801H135.225V118.011" fill="#CFF09E"/>
<path d="M71.2826 108.174V58.9878H90.9572L51.6081 19.6387L12.259 58.9878H31.9335V108.174" fill="#A8DBA8"/>
<path d="M199.167 206.547C182.869 206.547 169.655 219.759 169.655 236.059C169.655 252.356 182.869 265.571 199.167 265.571C215.467 265.571 228.679 252.356 228.679 236.059C228.679 219.759 215.467 206.547 199.167 206.547ZM199.167 255.733C188.302 255.733 179.493 246.924 179.493 236.059C179.493 225.191 188.302 216.384 199.167 216.384C210.035 216.384 218.842 225.191 218.842 236.059C218.842 246.924 210.035 255.733 199.167 255.733Z" fill="#3B8686"/>
<path d="M263.109 231.141H243.435C240.719 231.141 238.516 233.343 238.516 236.059C238.516 238.776 240.719 240.978 243.435 240.978H263.109C265.826 240.978 268.028 238.776 268.028 236.059C268.028 233.343 265.826 231.141 263.109 231.141Z" fill="#3B8686"/>
<path d="M154.899 231.141H135.225C132.509 231.141 130.306 233.343 130.306 236.059C130.306 238.776 132.509 240.978 135.225 240.978H154.899C157.616 240.978 159.818 238.776 159.818 236.059C159.818 233.343 157.616 231.141 154.899 231.141Z" fill="#3B8686"/>
<path d="M292.621 137.688H154.899C152.183 137.688 149.981 139.89 149.981 142.606V157.362H135.225C132.509 157.362 130.306 159.564 130.306 162.281V177.037H115.55C112.834 177.037 110.632 179.239 110.632 181.955V232.025C109.056 231.454 107.392 231.154 105.713 231.142H99.9106C100.482 229.564 100.782 227.899 100.794 226.223V216.386C100.794 208.234 94.1898 201.63 86.0385 201.63H56.5267V181.955H61.4454C75.0293 181.955 86.0385 170.944 86.0385 157.362V147.525C86.0385 144.808 83.8362 142.606 81.1199 142.606H71.2826C63.542 142.606 56.2529 146.249 51.6081 152.443C46.9633 146.249 39.6742 142.606 31.9336 142.606H22.0963C19.38 142.606 17.1776 144.808 17.1776 147.525V157.362C17.1776 170.944 28.1893 181.955 41.7708 181.955H46.6895V201.63H17.1776C9.02875 201.63 2.42174 208.234 2.42174 216.386V226.223C2.42174 234.372 9.02875 240.979 17.1776 240.979H22.9825C22.4109 242.554 22.1107 244.219 22.0963 245.897V255.735C22.1107 257.411 22.4109 259.075 22.9825 260.653H17.1776C9.02875 260.653 2.42174 267.258 2.42174 275.409V285.246C2.42174 293.395 9.02875 300.002 17.1776 300.002H86.0385C94.1898 300.002 100.794 293.395 100.794 285.246V275.409C100.782 273.73 100.482 272.066 99.9106 270.491H105.713C107.392 270.476 109.056 270.176 110.632 269.604V290.165C110.632 292.881 112.834 295.084 115.55 295.084H292.621C295.338 295.084 297.54 292.881 297.54 290.165V142.606C297.54 139.89 295.338 137.688 292.621 137.688ZM258.191 280.328V285.246H149.981V280.328C149.981 266.744 138.972 255.735 125.388 255.735H120.469V216.386H125.388C138.972 216.386 149.981 205.374 149.981 191.792V186.874H258.191V191.792C258.191 205.374 269.202 216.386 282.784 216.386H287.703V255.735H282.784C269.202 255.735 258.191 266.744 258.191 280.328ZM268.028 186.874H287.703V206.548H282.784C274.635 206.548 268.028 199.941 268.028 191.792V186.874ZM159.818 147.525H287.703V157.362H159.818V147.525ZM140.144 167.199H287.703V177.037H140.144V167.199ZM120.469 186.874H140.144V191.792C140.144 199.941 133.539 206.548 125.388 206.548H120.469V186.874ZM71.2826 152.443H76.2013V157.362C76.2013 165.511 69.5967 172.118 61.4454 172.118H56.5267V167.199C56.5267 159.048 63.1337 152.443 71.2826 152.443ZM41.7708 172.118C33.6219 172.118 27.0149 165.511 27.0149 157.362V152.443H31.9336C40.0848 152.443 46.6895 159.048 46.6895 167.199V172.118H41.7708ZM12.259 226.223V216.386C12.259 213.669 14.4613 211.467 17.1776 211.467H22.0963V216.386C22.0963 219.102 24.2986 221.304 27.0149 221.304C29.7312 221.304 31.9336 219.102 31.9336 216.386V211.467H46.6895V216.386C46.6895 219.102 48.8918 221.304 51.6081 221.304C54.3244 221.304 56.5267 219.102 56.5267 216.386V211.467H71.2826V216.386C71.2826 219.102 73.485 221.304 76.2013 221.304C78.9176 221.304 81.1199 219.102 81.1199 216.386V211.467H86.0385C88.7548 211.467 90.9572 213.669 90.9572 216.386V226.223C90.9572 228.939 88.7548 231.142 86.0385 231.142H17.1776C14.4613 231.142 12.259 228.939 12.259 226.223ZM90.9572 275.409V285.246C90.9572 287.963 88.7548 290.165 86.0385 290.165H17.1776C14.4613 290.165 12.259 287.963 12.259 285.246V275.409C12.259 272.693 14.4613 270.491 17.1776 270.491H22.0963V275.409C22.0963 278.126 24.2986 280.328 27.0149 280.328C29.7312 280.328 31.9336 278.126 31.9336 275.409V270.491H46.6895V275.409C46.6895 278.126 48.8918 280.328 51.6081 280.328C54.3244 280.328 56.5267 278.126 56.5267 275.409V270.491H71.2826V275.409C71.2826 278.126 73.485 280.328 76.2013 280.328C78.9176 280.328 81.1199 278.126 81.1199 275.409V270.491H86.0385C88.7548 270.491 90.9572 272.693 90.9572 275.409ZM105.713 260.653H36.8522C34.1359 260.653 31.9336 258.451 31.9336 255.735V245.897C31.9336 243.181 34.1359 240.979 36.8522 240.979H41.7708V245.897C41.7708 248.614 43.9732 250.816 46.6895 250.816C49.4058 250.816 51.6081 248.614 51.6081 245.897V240.979H66.364V245.897C66.364 248.614 68.5663 250.816 71.2826 250.816C73.9989 250.816 76.2013 248.614 76.2013 245.897V240.979H90.9572V245.897C90.9572 248.614 93.1595 250.816 95.8758 250.816C98.5921 250.816 100.794 248.614 100.794 245.897V240.979H105.713C108.429 240.979 110.632 243.181 110.632 245.897V255.735C110.632 258.451 108.429 260.653 105.713 260.653ZM120.469 285.246V265.572H125.388C133.539 265.572 140.144 272.177 140.144 280.328V285.246H120.469ZM287.703 285.246H268.028V280.328C268.028 272.177 274.635 265.572 282.784 265.572H287.703V285.246Z" fill="#3B8686"/>
<path d="M233.598 44.2331V118.013C233.598 120.729 235.8 122.931 238.516 122.931C241.233 122.931 243.435 120.729 243.435 118.013V49.1517H263.109V118.013C263.109 120.729 265.312 122.931 268.028 122.931C270.744 122.931 272.947 120.729 272.947 118.013V44.2331C272.947 41.5168 270.744 39.3145 268.028 39.3145H238.516C235.8 39.3145 233.598 41.5168 233.598 44.2331Z" fill="#3B8686"/>
<path d="M209.004 122.931C211.721 122.931 213.923 120.728 213.923 118.012V63.9069C213.923 61.1906 211.721 58.9883 209.004 58.9883H179.493C176.776 58.9883 174.574 61.1906 174.574 63.9069V118.012C174.574 120.728 176.776 122.931 179.493 122.931C182.209 122.931 184.411 120.728 184.411 118.012V68.8256H204.086V118.012C204.086 120.728 206.288 122.931 209.004 122.931Z" fill="#3B8686"/>
<path d="M120.469 122.93C123.185 122.93 125.388 120.727 125.388 118.011V88.4994H145.062V118.011C145.062 120.727 147.264 122.93 149.981 122.93C152.697 122.93 154.899 120.727 154.899 118.011V83.5807C154.899 80.8644 152.697 78.6621 149.981 78.6621H120.469C117.753 78.6621 115.55 80.8644 115.55 83.5807V118.011C115.55 120.727 117.753 122.93 120.469 122.93Z" fill="#3B8686"/>
<path d="M120.469 54.0698H142.949C186.738 54.0938 228.979 37.8633 261.488 8.52196C263.446 6.69188 263.578 3.62734 261.781 1.63635C260.905 0.658862 259.673 0.0704512 258.361 0.00560609C257.05 -0.0568375 255.768 0.404285 254.797 1.29291C224.113 28.9554 184.26 44.2565 142.949 44.2325H120.469C117.753 44.2325 115.55 46.4348 115.55 49.1511C115.55 51.8674 117.753 54.0698 120.469 54.0698Z" fill="#3B8686"/>
<path d="M12.259 63.9066H27.0149V108.174C27.0149 110.891 29.2172 113.093 31.9335 113.093C34.6498 113.093 36.8522 110.891 36.8522 108.174V58.9879C36.8522 56.2716 34.6498 54.0693 31.9335 54.0693H24.1137L51.6081 26.5725L79.1049 54.0693H71.2826C68.5663 54.0693 66.364 56.2716 66.364 58.9879V108.174C66.364 110.891 68.5663 113.093 71.2826 113.093C73.9989 113.093 76.2012 110.891 76.2012 108.174V63.9066H90.9571C92.9433 63.897 94.7278 62.6937 95.4843 60.8564C96.2528 59.024 95.847 56.9105 94.4492 55.4959L55.1001 16.1468C54.1779 15.215 52.9194 14.6914 51.6081 14.6914C50.2967 14.6914 49.0407 15.215 48.116 16.1468L8.76694 55.4959C7.37156 56.9105 6.96328 59.024 7.73422 60.8564C8.48835 62.6937 10.2752 63.897 12.259 63.9066Z" fill="#3B8686"/>
<path d="M46.6895 73.7448V122.931C46.6895 125.647 48.8918 127.85 51.6081 127.85C54.3244 127.85 56.5267 125.647 56.5267 122.931V73.7448C56.5267 71.0285 54.3244 68.8262 51.6081 68.8262C48.8918 68.8262 46.6895 71.0285 46.6895 73.7448Z" fill="#3B8686"/>
</g>
<defs>
<clipPath id="clip0">
<rect width="300" height="300" fill="white"/>
</clipPath>
</defs>
</svg>
