<svg width="250" height="250" viewBox="0 0 250 250" fill="none" xmlns="http://www.w3.org/2000/svg">
<path d="M32.8721 100.628C32.8721 151.235 73.8926 192.255 124.5 192.255C175.107 192.255 216.127 151.235 216.127 100.628C216.127 50.0205 175.107 9 124.5 9C73.8926 9 32.8721 50.0205 32.8721 100.628Z" fill="#FFE3C2"/>
<circle cx="123.927" cy="97.766" r="62.4215" stroke="#2C3436" stroke-width="45.814"/>
<circle cx="124.5" cy="100.628" r="86.4738" stroke="#20282A" stroke-width="10.3081"/>
<circle cx="124.5" cy="100.629" r="44.0959" stroke="#20282A" stroke-width="10.3081"/>
<path d="M135.736 110.179C142.949 108.576 150.562 98.5584 141.746 92.5479C135.569 88.3358 128.42 80.3502 125.318 76.1191M125.318 115.388V76.9205" stroke="#20282A" stroke-width="6.41121" stroke-linecap="round"/>
<path d="M128.613 113.919C128.613 120.558 123.231 125.94 116.592 125.94C109.953 125.94 104.571 120.558 104.571 113.919C104.571 107.28 109.953 101.898 116.592 101.898C123.231 101.898 128.613 107.28 128.613 113.919Z" fill="#20282A"/>
<rect x="26" y="150.564" width="197" height="89.3372" rx="27.4884" fill="#3B8686" stroke="#20282A" stroke-width="10"/>
<path d="M59.6733 220.564V172.46H75.8914C81.0226 172.46 85.4665 173.491 89.2233 175.552C92.98 177.614 95.8892 180.454 97.9508 184.074C100.058 187.693 101.112 191.839 101.112 196.512C101.112 201.185 100.058 205.331 97.9508 208.951C95.8892 212.57 92.98 215.41 89.2233 217.472C85.4665 219.534 81.0226 220.564 75.8914 220.564H59.6733ZM69.5004 211.906H75.8914C78.8693 211.906 81.5036 211.287 83.7943 210.05C86.1308 208.813 87.9634 207.049 89.292 204.759C90.6206 202.422 91.2849 199.673 91.2849 196.512C91.2849 193.305 90.6206 190.556 89.292 188.266C87.9634 185.975 86.1308 184.211 83.7943 182.974C81.5036 181.737 78.8693 181.119 75.8914 181.119H69.5004V211.906ZM126.272 220.564C123.432 220.564 120.935 219.923 118.782 218.64C116.629 217.312 114.956 215.571 113.765 213.417C112.574 211.218 111.978 208.813 111.978 206.202V172.46H121.806V207.37C121.806 208.607 122.241 209.684 123.111 210.6C123.982 211.47 125.035 211.906 126.272 211.906H138.986V220.564H126.272ZM168.859 221.389C166.752 221.389 164.85 220.908 163.155 219.946C161.506 218.938 160.292 217.38 159.513 215.273L145.15 172.46H156.077L167.691 211.218C167.874 211.814 168.263 212.112 168.859 212.112C169.455 212.112 169.844 211.814 170.027 211.218L182.053 172.46H192.499L178.205 215.204C177.472 217.266 176.258 218.824 174.563 219.877C172.868 220.885 170.966 221.389 168.859 221.389Z" fill="white"/>
</svg>
