<svg width="115" height="115" viewBox="0 0 115 115" fill="none" xmlns="http://www.w3.org/2000/svg">
<path d="M43.125 79.0625V107.812C43.125 109.789 41.5078 111.406 39.5312 111.406H32.3438C30.3672 111.406 28.75 109.789 28.75 107.812V79.0625H43.125Z" fill="#79BD9A"/>
<path d="M43.125 71.875V79.0625H28.75V71.875C28.75 70.3477 29.2352 68.9102 30.0617 67.7422C31.9664 68.1016 33.925 68.2812 35.9375 68.2812C37.95 68.2812 39.9086 68.1016 41.8133 67.7602C42.6398 68.9281 43.125 70.3477 43.125 71.875Z" fill="#A8DBA8"/>
<path d="M66.4484 25.1562H58.668C54.643 16.657 45.9641 10.7812 35.9375 10.7812C22.0477 10.7812 10.7812 22.0477 10.7812 35.9375C10.7812 49.8273 22.0477 61.0938 35.9375 61.0938C45.9641 61.0938 54.643 55.218 58.668 46.7188H66.4484C65.0289 50.7438 62.8367 54.3914 60.0516 57.5H59.2969C58.3086 57.5 57.5 58.3086 57.5 59.2969V60.0516C53.1695 63.9328 47.7789 66.6641 41.8133 67.7422V67.7602C39.9086 68.1016 37.95 68.2812 35.9375 68.2812C33.925 68.2812 31.9664 68.1016 30.0617 67.7422C15.0039 64.993 3.59375 51.7859 3.59375 35.9375C3.59375 18.0766 18.0766 3.59375 35.9375 3.59375C50.025 3.59375 61.9922 12.5961 66.4484 25.1562Z" fill="#3B8686"/>
<path d="M58.668 25.1562H44.9219C43.9336 25.1562 43.125 25.9648 43.125 26.9531V44.9219C43.125 45.9102 43.9336 46.7188 44.9219 46.7188H58.668C54.643 55.218 45.9641 61.0938 35.9375 61.0938C22.0477 61.0938 10.7812 49.8273 10.7812 35.9375C10.7812 22.0477 22.0477 10.7812 35.9375 10.7812C45.9641 10.7812 54.643 16.657 58.668 25.1562Z" fill="white"/>
<path d="M75.1333 90.1383C68.4765 89.8271 57.2956 90.1383 50.8667 90.1383C50.39 90.1383 50 90.9206 50 91.8768V109.262C50 110.218 50.39 111 50.8667 111H75.1333C75.61 111 76 110.218 76 109.262V91.8768C76 90.9206 75.61 90.1383 75.1333 90.1383Z" fill="#CFF09E"/>
<path d="M110.167 57.1449C103.766 56.8189 93.015 57.1449 86.8333 57.1449C86.375 57.1449 86 57.9645 86 58.9662V77.1787C86 78.1804 86.375 79 86.8333 79H110.167C110.625 79 111 78.1804 111 77.1787V58.9662C111 57.9645 110.625 57.1449 110.167 57.1449Z" fill="#F09E9E"/>
<path d="M67.3421 25.0049C60.1678 24.9939 50.327 25.0049 43.6579 25.0049C43.2961 25.0049 43 25.8297 43 26.8378V45.1671C43 46.1752 43.2961 47 43.6579 47H67.3421C67.7039 47 68 46.1752 68 45.1671V26.8378C68 25.8297 67.7039 25.0049 67.3421 25.0049Z" fill="#CFF09E"/>
<path d="M109.609 48.5156C111.591 48.5156 113.203 46.9038 113.203 44.9219V26.9531C113.203 24.9712 111.591 23.3594 109.609 23.3594H67.6577C62.5223 10.4165 49.9513 1.79688 35.9375 1.79688C17.1116 1.79688 1.79688 17.1116 1.79688 35.9375C1.79688 51.8273 12.7255 65.178 27.4491 68.9659C27.131 69.8948 26.9531 70.8723 26.9531 71.875V107.812C26.9531 110.785 29.3717 113.203 32.3438 113.203H39.5312C42.5033 113.203 44.9219 110.785 44.9219 107.812V71.875C44.9219 70.8777 44.7476 69.9056 44.4313 68.9802C48.4671 67.9434 52.2837 66.1789 55.7031 63.7459V77.2656C55.7031 79.2476 57.3149 80.8594 59.2969 80.8594H109.609C111.591 80.8594 113.203 79.2476 113.203 77.2656V59.2969C113.203 57.3149 111.591 55.7031 109.609 55.7031H63.7549C65.3434 53.475 66.6335 51.0654 67.6434 48.5156H109.609ZM44.9219 48.5156H55.6097C51.3529 55.1425 43.921 59.2969 35.9375 59.2969C23.0575 59.2969 12.5781 48.8175 12.5781 35.9375C12.5781 23.0575 23.0575 12.5781 35.9375 12.5781C43.921 12.5781 51.3529 16.7325 55.6097 23.3594H44.9219C42.9399 23.3594 41.3281 24.9712 41.3281 26.9531V44.9219C41.3281 46.9038 42.9399 48.5156 44.9219 48.5156ZM44.9219 44.9219V26.9531H66.4844V44.9219H44.9219ZM109.611 44.9219H70.0781V26.9531H109.609L109.611 44.9219ZM39.5312 109.609H32.3438C31.3537 109.609 30.5469 108.803 30.5469 107.812V80.8594H41.3281V107.812C41.3281 108.803 40.5213 109.609 39.5312 109.609ZM41.3281 71.875V77.2656H30.5469V71.875C30.5469 71.1095 30.7176 70.3692 31.023 69.6828C32.633 69.9164 34.2646 70.0781 35.9375 70.0781C37.596 70.0781 39.233 69.9236 40.8537 69.6882C41.1592 70.3728 41.3281 71.1113 41.3281 71.875ZM59.2969 59.2969H84.4531V77.2656H59.2969V59.2969ZM109.609 77.2656H88.0469V59.2969H109.609V77.2656ZM59.1837 55.7139C57.2934 55.775 55.775 57.2934 55.7157 59.1855C50.1957 63.8843 43.2113 66.4844 35.9375 66.4844C19.0936 66.4844 5.39062 52.7814 5.39062 35.9375C5.39062 19.0936 19.0936 5.39062 35.9375 5.39062C47.9963 5.39062 58.8746 12.5152 63.7765 23.3594H59.7623C55.1209 14.596 45.903 8.98438 35.9375 8.98438C21.0755 8.98438 8.98438 21.0755 8.98438 35.9375C8.98438 50.7995 21.0755 62.8906 35.9375 62.8906C45.903 62.8906 55.1209 57.279 59.7623 48.5156H63.7657C62.5923 51.1157 61.0506 53.5217 59.1837 55.7139Z" fill="#373F41"/>
<path d="M102.422 34.1406H106.016V37.7344H102.422V34.1406Z" fill="#373F41"/>
<path d="M95.2344 34.1406H98.8281V37.7344H95.2344V34.1406Z" fill="#373F41"/>
<path d="M88.0469 34.1406H91.6406V37.7344H88.0469V34.1406Z" fill="#373F41"/>
<path d="M80.8594 34.1406H84.4531V37.7344H80.8594V34.1406Z" fill="#373F41"/>
<path d="M73.6719 34.1406H77.2656V37.7344H73.6719V34.1406Z" fill="#373F41"/>
<path d="M61.6202 29.2773L52.1094 38.7882L49.786 36.4648L47.2452 39.0056L52.1094 43.8698L64.161 31.8181L61.6202 29.2773Z" fill="#373F41"/>
<path d="M102.422 88.0469H52.1094C50.1274 88.0469 48.5156 89.6587 48.5156 91.6406V109.609C48.5156 111.591 50.1274 113.203 52.1094 113.203H102.422C104.404 113.203 106.016 111.591 106.016 109.609V91.6406C106.016 89.6587 104.404 88.0469 102.422 88.0469ZM52.1094 91.6406H73.6719V109.609H52.1094V91.6406ZM77.2656 109.609V91.6406H102.422L102.424 109.609H77.2656Z" fill="#373F41"/>
<path d="M95.2344 98.8281H98.8281V102.422H95.2344V98.8281Z" fill="#373F41"/>
<path d="M88.0469 98.8281H91.6406V102.422H88.0469V98.8281Z" fill="#373F41"/>
<path d="M80.8594 98.8281H84.4531V102.422H80.8594V98.8281Z" fill="#373F41"/>
<path d="M62.8906 66.4844H66.4844V70.0781H62.8906V66.4844Z" fill="#373F41"/>
<path d="M70.0781 66.4844H73.6719V70.0781H70.0781V66.4844Z" fill="#373F41"/>
<path d="M77.2656 66.4844H80.8594V70.0781H77.2656V66.4844Z" fill="#373F41"/>
<path d="M68.8077 93.9648L59.2969 103.476L56.9735 101.152L54.4327 103.693L59.2969 108.557L71.3485 96.5056L68.8077 93.9648Z" fill="#373F41"/>
<path d="M92.1671 72.4023L94.7079 74.9431L98.8281 70.8229L102.948 74.9431L105.489 72.4023L101.369 68.2821L105.489 64.1619L102.948 61.6211L98.8281 65.7413L94.7079 61.6211L92.1671 64.1619L96.2873 68.2821L92.1671 72.4023Z" fill="#373F41"/>
</svg>
