<svg width="300" height="300" viewBox="0 0 300 300" fill="none" xmlns="http://www.w3.org/2000/svg">
<path d="M17.5781 255.155V59.7656C17.5781 50.0572 25.4479 42.1875 35.1562 42.1875H264.844C274.552 42.1875 282.422 50.0572 282.422 59.7656V255.155H17.5781Z" fill="#79BD9A"/>
<path d="M264.844 42.1875H247.266C256.974 42.1875 264.844 50.0572 264.844 59.7656V255.155H282.422V59.7656C282.422 50.0572 274.552 42.1875 264.844 42.1875Z" fill="#79BD9A"/>
<path d="M35.1562 263.944V63.8672C35.1562 61.602 36.9926 59.7656 39.2578 59.7656H260.742C263.007 59.7656 264.844 61.602 264.844 63.8672V263.944H35.1562Z" fill="white"/>
<path d="M175.777 244.922V252.878C175.777 256.114 173.154 258.738 169.918 258.738H130.083C126.847 258.738 124.223 256.114 124.223 252.878V244.922C124.223 241.686 121.6 239.062 118.364 239.062H10.2539C7.01777 239.062 4.39453 241.686 4.39453 244.922V265.43C4.39453 275.138 12.2643 283.008 21.9727 283.008H278.027C287.736 283.008 295.605 275.138 295.605 265.43V244.922C295.605 241.686 292.982 239.062 289.746 239.062H181.637C178.4 239.062 175.777 241.686 175.777 244.922Z" fill="#79BD9A"/>
<path d="M289.746 239.062H272.168C275.404 239.062 278.027 241.686 278.027 244.922V265.43C278.027 275.138 270.158 283.008 260.449 283.008H278.027C287.736 283.008 295.605 275.138 295.605 265.43V244.922C295.605 241.686 292.982 239.062 289.746 239.062Z" fill="#79BD9A"/>
<path d="M202.485 130.015C202.485 145.933 195.398 160.196 184.209 169.821C175.022 177.723 163.069 171.328 150 171.328C136.931 171.328 124.978 177.723 115.791 169.821C104.602 160.196 97.5152 145.933 97.5152 130.015C97.5152 101.029 121.014 77.5303 150 77.5303C178.986 77.5303 202.485 101.029 202.485 130.015Z" fill="white"/>
<path d="M150.696 181.886C153.691 181.886 156.627 181.631 159.485 181.149C134.683 176.967 115.789 155.392 115.789 129.401C115.789 103.41 134.683 81.8351 159.485 77.6527C156.627 77.1705 153.691 78.2633 150.696 78.2633C137.627 78.2633 125.674 81.6928 116.487 89.5953C105.297 99.2205 98.2109 113.483 98.2109 129.401C98.2109 158.387 121.709 181.886 150.696 181.886Z" fill="#AEE49E"/>
<path d="M150 138.659C132.103 138.659 117.408 152.344 115.792 169.819C124.979 177.721 136.931 182.499 150 182.499C163.069 182.499 175.021 177.721 184.208 169.819C182.592 152.344 167.897 138.659 150 138.659Z" fill="#A8DBA8"/>
<path d="M123.2 154C130.51 168.178 143.992 178.518 160 181.283C146.058 183.714 129.826 180.018 118.001 169.365L118 169.364C118.51 163.737 120.355 158.508 123.2 154Z" fill="#79BD9A"/>
<path d="M150 145.894C139.989 145.894 131.873 137.779 131.873 127.767V120.854C131.873 110.842 139.989 102.727 150 102.727C160.011 102.727 168.127 110.842 168.127 120.854V127.767C168.127 137.779 160.011 145.894 150 145.894Z" fill="white"/>
<path d="M150 102.727C146.81 102.727 143.815 103.553 141.211 105C146.779 108.094 150.549 114.032 150.549 120.854V127.767C150.549 134.589 146.779 140.527 141.211 143.621C143.815 145.068 146.81 145.894 150 145.894C160.011 145.894 168.127 137.779 168.127 127.767V120.854C168.127 110.842 160.011 102.727 150 102.727Z" fill="white"/>
<path d="M201.052 221.484H98.9479C95.7117 221.484 93.0885 218.861 93.0885 215.625V206.836C93.0885 203.6 95.7117 200.977 98.9479 200.977H201.053C204.289 200.977 206.912 203.6 206.912 206.836V215.625C206.912 218.861 204.288 221.484 201.052 221.484Z" fill="#A8DBA8"/>
<path d="M99.3334 221.484H116.912C113.675 221.484 111.052 218.861 111.052 215.625V206.836C111.052 203.6 113.675 200.977 116.912 200.977H99.3334C96.0973 200.977 93.474 203.6 93.474 206.836V215.625C93.474 218.861 96.0973 221.484 99.3334 221.484Z" fill="#79BD9A"/>
<path fill-rule="evenodd" clip-rule="evenodd" d="M175.799 79.3016C167.898 75.2744 159.103 73.1369 149.999 73.1369C118.638 73.1369 93.1225 98.6516 93.1225 130.013C93.1225 161.408 119.004 186.896 149.999 186.896C215.5 182 224.5 102.5 175.799 79.3016ZM169.273 139.408C177.541 144.18 183.808 151.916 186.799 160.929C215.5 123 184.035 81.9343 149.999 81.9266C123.441 81.9205 101.912 103.498 101.912 130.014C101.912 141.778 106.163 152.563 113.201 160.929C116.192 151.916 122.459 144.179 130.727 139.408C128.666 136.009 127.478 132.025 127.478 127.767V120.853C127.478 108.434 137.581 98.3316 150 98.3316C162.419 98.3316 172.522 108.435 172.522 120.853V127.767C172.522 132.024 171.334 136.009 169.273 139.408ZM150 150.288C145.117 150.288 140.595 148.721 136.901 146.07C128.29 150.274 122.105 158.499 120.475 167.933C128.631 174.3 138.876 178.108 150 178.108C161.124 178.108 171.369 174.3 179.525 167.933C177.895 158.499 171.71 150.274 163.099 146.07C159.405 148.721 154.883 150.288 150 150.288ZM136.267 120.853V127.767C136.267 135.339 142.428 141.5 150 141.5C157.572 141.5 163.733 135.339 163.733 127.767V120.853C163.733 113.281 157.572 107.121 150 107.121C142.428 107.121 136.267 113.281 136.267 120.853Z" fill="#3B8686"/>
<path fill-rule="evenodd" clip-rule="evenodd" d="M289.746 234.668H286.816V59.3713C286.816 47.5002 281.5 37.792 264 37.792H35.1562C23.0402 37.792 13.1836 47.6486 13.1836 59.7646V234.667H10.2539C4.6002 234.668 0 239.268 0 244.922V265.43C0 277.546 9.85664 287.403 21.9727 287.403H278.027C290.143 287.403 300 277.546 300 265.43V244.922C300 239.268 295.4 234.668 289.746 234.668ZM269.238 234.668H278.027V61.5002C278.027 51.0002 273.5 46.5822 264 46.5822H35.1562C27.8871 46.5822 21.9727 52.4967 21.9727 59.7658V234.668H30.7617V63.8674C30.7617 59.1828 34.5732 55.3713 39.2578 55.3713H132.422H152.93H259.5C265 55.3713 269.5 58.0002 269.5 63.8674C269.5 71.283 269.326 180.824 269.238 234.668ZM181.636 234.668H260.45V64.1603H152.93H132.422H39.5508V234.668H118.364C124.018 234.668 128.618 239.268 128.618 244.922V252.879C128.618 253.687 129.275 254.343 130.083 254.343H169.917C170.725 254.343 171.382 253.687 171.382 252.879V244.922C171.382 239.268 175.982 234.668 181.636 234.668ZM278.027 278.613C285.296 278.613 291.211 272.699 291.211 265.43V244.922C291.211 244.114 290.554 243.457 289.746 243.457H181.636C180.828 243.457 180.171 244.114 180.171 244.922V252.879C180.171 258.532 175.571 263.132 169.917 263.132H130.083C124.429 263.132 119.829 258.532 119.829 252.879V244.922C119.829 244.114 119.172 243.457 118.364 243.457H10.2539C9.4459 243.457 8.78906 244.114 8.78906 244.922V265.43C8.78906 272.699 14.7035 278.613 21.9727 278.613H278.027Z" fill="#3B8686"/>
<path fill-rule="evenodd" clip-rule="evenodd" d="M88.6934 206.836V215.625C88.6934 221.279 93.2936 225.879 98.9473 225.879H123.759H144.267H201.053C206.706 225.879 211.307 221.279 211.307 215.625V206.836C211.307 201.182 206.706 196.582 201.053 196.582H98.9473C93.2936 196.582 88.6934 201.182 88.6934 206.836ZM98.9473 217.09H123.759H144.267H201.053C201.861 217.09 202.518 216.433 202.518 215.625V206.836C202.518 206.028 201.861 205.371 201.053 205.371H98.9473C98.1393 205.371 97.4824 206.028 97.4824 206.836V215.625C97.4824 216.433 98.1393 217.09 98.9473 217.09Z" fill="#3B8686"/>
</svg>
