<svg width="300" height="300" viewBox="0 0 300 300" fill="none" xmlns="http://www.w3.org/2000/svg">
<g clip-path="url(#clip0)">
<rect x="20" y="78" width="260" height="174" fill="#3B8686"/>
<rect x="39" y="97" width="222" height="155" fill="white"/>
<path fill-rule="evenodd" clip-rule="evenodd" d="M136 174H68V233H136V174ZM102 193.5C109 193.5 109 204 102 204C95 204 95 193.5 102 193.5Z" fill="#F09E9E"/>
<path d="M10 261H290V291H10V261Z" fill="#3B8686"/>
<rect x="111" y="261" width="78" height="10" fill="#79BD9A"/>
<path d="M197.876 261.416H289.867V275.885C289.867 283.862 283.375 290.354 275.398 290.354H24.602C16.6248 290.354 10.1331 283.862 10.1331 275.885V261.416H102.124V251.77H0.487061V275.885C0.487061 289.182 11.305 299.999 24.602 299.999H275.398C288.695 299.999 299.513 289.182 299.513 275.885V251.77H197.876V261.416Z" fill="#20282A"/>
<path d="M116.239 280.708H183.761C191.738 280.708 198.23 274.216 198.23 266.239V251.77H101.77V266.239C101.77 274.216 108.262 280.708 116.239 280.708ZM111.416 261.416H188.584V266.239C188.584 268.896 186.423 271.062 183.761 271.062H116.239C113.577 271.062 111.416 268.896 111.416 266.239V261.416Z" fill="#20282A"/>
<path d="M19.779 92.6111C19.779 84.6338 26.2708 78.1421 34.248 78.1421H155.177V68.4961H34.248C20.951 68.4961 10.1331 79.3141 10.1331 92.6111V252.124H19.779V92.6111Z" fill="#20282A"/>
<path d="M290 108L280 137.5V252H290V108Z" fill="#20282A"/>
<path d="M155.177 87.7891H39.071C33.7513 87.7891 29.425 92.1153 29.425 97.4351V252.125H39.071V97.4351H155.177V87.7891Z" fill="#20282A"/>
<path d="M271 154.5L261 164V252H271V154.5Z" fill="#20282A"/>
<path d="M281.83 40.2888C261.189 40.2888 241.205 34.2065 224.034 22.6984L221.5 21L218.965 22.6984C201.799 34.2065 181.811 40.2888 161.17 40.2888H153V109.144C153 147.111 183.729 178 221.5 178C259.271 178 290 147.111 290 109.144V40.2888H281.83V40.2888ZM280.867 109.144C280.867 142.048 254.234 168.819 221.5 168.819C188.766 168.819 162.133 142.048 162.133 109.144V49.4649C183.236 49.2859 203.676 43.2633 221.5 31.9848C239.324 43.2633 259.764 49.2859 280.867 49.4649V109.144Z" fill="#20282A"/>
<path d="M280.867 109.144C280.867 142.048 254.234 168.819 221.5 168.819C188.766 168.819 162.133 142.048 162.133 109.144V49.4645C183.236 49.2855 203.676 43.2629 221.5 31.9844C239.324 43.2629 259.764 49.2855 280.867 49.4645V109.144Z" fill="#79BD9A"/>
<path d="M219.315 44.1804C205.519 51.6442 190.631 56.3384 175.063 58.1343L171 58.6028V109.476C171 137.333 193.656 160 221.5 160C249.344 160 272 137.333 272 109.476V58.6028L267.932 58.1297C252.365 56.3338 237.476 51.6396 223.681 44.1758L221.5 43L219.315 44.1804ZM262.818 66.7279V109.476C262.818 132.267 244.285 150.814 221.5 150.814C198.715 150.814 180.182 132.267 180.182 109.476V66.7279C194.634 64.6105 208.503 60.1414 221.5 53.4217C234.497 60.1414 248.366 64.6059 262.818 66.7279Z" fill="#20282A"/>
<path d="M262.818 66.7281V109.476C262.818 132.267 244.285 150.814 221.5 150.814C198.715 150.814 180.182 132.267 180.182 109.476V66.7281C194.634 64.6107 208.503 60.1416 221.5 53.4219C234.497 60.1416 248.366 64.6061 262.818 66.7281Z" fill="#CFF09E"/>
<path d="M201.508 105.496L196 112.7L218.155 129L253 80.16L245.482 75L216.071 116.213L201.508 105.496Z" fill="#20282A"/>
<path d="M72.832 242.124H130.708C138.685 242.124 145.177 235.633 145.177 227.655V179.426C145.177 173.146 141.13 167.841 135.531 165.844V150.488C135.531 131.871 120.382 116.727 101.77 116.727C83.1581 116.727 68.009 131.871 68.009 150.488V165.844C62.4095 167.841 58.363 173.146 58.363 179.426V227.655C58.363 235.633 64.8548 242.124 72.832 242.124ZM77.655 150.488C77.655 137.191 88.473 126.373 101.77 126.373C115.067 126.373 125.885 137.191 125.885 150.488V164.957H77.655V150.488ZM68.009 179.426C68.009 176.768 70.1697 174.603 72.832 174.603H130.708C133.37 174.603 135.531 176.768 135.531 179.426V227.655C135.531 230.313 133.37 232.478 130.708 232.478H72.832C70.1697 232.478 68.009 230.313 68.009 227.655V179.426V179.426Z" fill="#20282A"/>
<path d="M96.947 212.299V222.832H106.593V212.299C112.193 210.302 116.239 204.997 116.239 198.717C116.239 190.74 109.747 184.248 101.77 184.248C93.7928 184.248 87.301 190.74 87.301 198.717C87.301 204.997 91.3475 210.302 96.947 212.299ZM101.77 193.894C104.432 193.894 106.593 196.06 106.593 198.717C106.593 201.374 104.432 203.54 101.77 203.54C99.1077 203.54 96.947 201.374 96.947 198.717C96.947 196.06 99.1077 193.894 101.77 193.894Z" fill="#20282A"/>
<path d="M48.717 271.062H39.071V280.708H48.717V271.062Z" fill="#20282A"/>
<path d="M68.009 271.062H58.363V280.708H68.009V271.062Z" fill="#20282A"/>
<path d="M87.301 271.062H77.655V280.708H87.301V271.062Z" fill="#20282A"/>
</g>
<defs>
<clipPath id="clip0">
<rect width="300" height="300" fill="white"/>
</clipPath>
</defs>
</svg>
